<svg xmlns="http://www.w3.org/2000/svg" xmlns:xlink="http://www.w3.org/1999/xlink" width="1600" zoomAndPan="magnify" viewBox="0 0 1200 449.999984" height="600" preserveAspectRatio="xMidYMid meet" version="1.0"><defs><linearGradient x1="0" gradientTransform="matrix(0.75, 0, 0, 0.75, 0.0000217333, 0)" y1="0" x2="1599.999933" gradientUnits="userSpaceOnUse" y2="0" id="faefa22807"><stop stop-opacity="1" stop-color="rgb(100%, 100%, 100%)" offset="0"/><stop stop-opacity="1" stop-color="rgb(99.609375%, 99.72229%, 99.873352%)" offset="0.00390625"/><stop stop-opacity="1" stop-color="rgb(99.21875%, 99.44458%, 99.74823%)" offset="0.0078125"/><stop stop-opacity="1" stop-color="rgb(98.828125%, 99.16687%, 99.621582%)" offset="0.0117188"/><stop stop-opacity="1" stop-color="rgb(98.4375%, 98.88916%, 99.49646%)" offset="0.015625"/><stop stop-opacity="1" stop-color="rgb(98.046875%, 98.61145%, 99.369812%)" offset="0.0195312"/><stop stop-opacity="1" stop-color="rgb(97.65625%, 98.335266%, 99.24469%)" offset="0.0234375"/><stop stop-opacity="1" stop-color="rgb(97.265625%, 98.057556%, 99.118042%)" offset="0.0273438"/><stop stop-opacity="1" stop-color="rgb(96.875%, 97.779846%, 98.99292%)" offset="0.03125"/><stop stop-opacity="1" stop-color="rgb(96.484375%, 97.502136%, 98.866272%)" offset="0.0351562"/><stop stop-opacity="1" stop-color="rgb(96.09375%, 97.225952%, 98.74115%)" offset="0.0390625"/><stop stop-opacity="1" stop-color="rgb(95.703125%, 96.948242%, 98.614502%)" offset="0.0429688"/><stop stop-opacity="1" stop-color="rgb(95.3125%, 96.670532%, 98.48938%)" offset="0.046875"/><stop stop-opacity="1" stop-color="rgb(94.921875%, 96.392822%, 98.362732%)" offset="0.0507812"/><stop stop-opacity="1" stop-color="rgb(94.53125%, 96.116638%, 98.23761%)" offset="0.0546875"/><stop stop-opacity="1" stop-color="rgb(94.140625%, 95.838928%, 98.112488%)" offset="0.0585938"/><stop stop-opacity="1" stop-color="rgb(93.75%, 95.561218%, 97.987366%)" offset="0.0625"/><stop stop-opacity="1" stop-color="rgb(93.359375%, 95.283508%, 97.860718%)" offset="0.0664062"/><stop stop-opacity="1" stop-color="rgb(92.96875%, 95.007324%, 97.735596%)" offset="0.0703125"/><stop stop-opacity="1" stop-color="rgb(92.578125%, 94.729614%, 97.608948%)" offset="0.0742188"/><stop stop-opacity="1" stop-color="rgb(92.1875%, 94.451904%, 97.483826%)" offset="0.078125"/><stop stop-opacity="1" stop-color="rgb(91.796875%, 94.174194%, 97.357178%)" offset="0.0820312"/><stop stop-opacity="1" stop-color="rgb(91.40625%, 93.89801%, 97.232056%)" offset="0.0859375"/><stop stop-opacity="1" stop-color="rgb(91.015625%, 93.6203%, 97.105408%)" offset="0.0898438"/><stop stop-opacity="1" stop-color="rgb(90.625%, 93.34259%, 96.980286%)" offset="0.09375"/><stop stop-opacity="1" stop-color="rgb(90.234375%, 93.06488%, 96.853638%)" offset="0.0976562"/><stop stop-opacity="1" stop-color="rgb(89.84375%, 92.788696%, 96.728516%)" offset="0.101562"/><stop stop-opacity="1" stop-color="rgb(89.453125%, 92.510986%, 96.601868%)" offset="0.105469"/><stop stop-opacity="1" stop-color="rgb(89.0625%, 92.233276%, 96.476746%)" offset="0.109375"/><stop stop-opacity="1" stop-color="rgb(88.671875%, 91.955566%, 96.351624%)" offset="0.113281"/><stop stop-opacity="1" stop-color="rgb(88.28125%, 91.679382%, 96.226501%)" offset="0.117188"/><stop stop-opacity="1" stop-color="rgb(87.890625%, 91.401672%, 96.099854%)" offset="0.121094"/><stop stop-opacity="1" stop-color="rgb(87.5%, 91.123962%, 95.974731%)" offset="0.125"/><stop stop-opacity="1" stop-color="rgb(87.109375%, 90.846252%, 95.848083%)" offset="0.128906"/><stop stop-opacity="1" stop-color="rgb(86.71875%, 90.570068%, 95.722961%)" offset="0.132812"/><stop stop-opacity="1" stop-color="rgb(86.328125%, 90.292358%, 95.596313%)" offset="0.136719"/><stop stop-opacity="1" stop-color="rgb(85.9375%, 90.014648%, 95.471191%)" offset="0.140625"/><stop stop-opacity="1" stop-color="rgb(85.546875%, 89.736938%, 95.344543%)" offset="0.144531"/><stop stop-opacity="1" stop-color="rgb(85.15625%, 89.460754%, 95.219421%)" offset="0.148438"/><stop stop-opacity="1" stop-color="rgb(84.765625%, 89.183044%, 95.092773%)" offset="0.152344"/><stop stop-opacity="1" stop-color="rgb(84.375%, 88.905334%, 94.967651%)" offset="0.15625"/><stop stop-opacity="1" stop-color="rgb(83.984375%, 88.627625%, 94.841003%)" offset="0.160156"/><stop stop-opacity="1" stop-color="rgb(83.59375%, 88.35144%, 94.715881%)" offset="0.164062"/><stop stop-opacity="1" stop-color="rgb(83.203125%, 88.07373%, 94.589233%)" offset="0.167969"/><stop stop-opacity="1" stop-color="rgb(82.8125%, 87.796021%, 94.464111%)" offset="0.171875"/><stop stop-opacity="1" stop-color="rgb(82.421875%, 87.518311%, 94.338989%)" offset="0.175781"/><stop stop-opacity="1" stop-color="rgb(82.03125%, 87.242126%, 94.213867%)" offset="0.179688"/><stop stop-opacity="1" stop-color="rgb(81.640625%, 86.964417%, 94.087219%)" offset="0.183594"/><stop stop-opacity="1" stop-color="rgb(81.25%, 86.686707%, 93.962097%)" offset="0.1875"/><stop stop-opacity="1" stop-color="rgb(80.859375%, 86.408997%, 93.835449%)" offset="0.191406"/><stop stop-opacity="1" stop-color="rgb(80.46875%, 86.132812%, 93.710327%)" offset="0.195312"/><stop stop-opacity="1" stop-color="rgb(80.078125%, 85.855103%, 93.583679%)" offset="0.199219"/><stop stop-opacity="1" stop-color="rgb(79.6875%, 85.577393%, 93.458557%)" offset="0.203125"/><stop stop-opacity="1" stop-color="rgb(79.296875%, 85.299683%, 93.331909%)" offset="0.207031"/><stop stop-opacity="1" stop-color="rgb(78.90625%, 85.021973%, 93.206787%)" offset="0.210938"/><stop stop-opacity="1" stop-color="rgb(78.515625%, 84.744263%, 93.080139%)" offset="0.214844"/><stop stop-opacity="1" stop-color="rgb(78.125%, 84.468079%, 92.955017%)" offset="0.21875"/><stop stop-opacity="1" stop-color="rgb(77.734375%, 84.190369%, 92.828369%)" offset="0.222656"/><stop stop-opacity="1" stop-color="rgb(77.34375%, 83.912659%, 92.703247%)" offset="0.226562"/><stop stop-opacity="1" stop-color="rgb(76.953125%, 83.634949%, 92.578125%)" offset="0.230469"/><stop stop-opacity="1" stop-color="rgb(76.5625%, 83.358765%, 92.453003%)" offset="0.234375"/><stop stop-opacity="1" stop-color="rgb(76.171875%, 83.081055%, 92.326355%)" offset="0.238281"/><stop stop-opacity="1" stop-color="rgb(75.78125%, 82.803345%, 92.201233%)" offset="0.242188"/><stop stop-opacity="1" stop-color="rgb(75.390625%, 82.525635%, 92.074585%)" offset="0.246094"/><stop stop-opacity="1" stop-color="rgb(75%, 82.249451%, 91.949463%)" offset="0.25"/><stop stop-opacity="1" stop-color="rgb(74.609375%, 81.971741%, 91.822815%)" offset="0.253906"/><stop stop-opacity="1" stop-color="rgb(74.21875%, 81.694031%, 91.697693%)" offset="0.257812"/><stop stop-opacity="1" stop-color="rgb(73.828125%, 81.416321%, 91.571045%)" offset="0.261719"/><stop stop-opacity="1" stop-color="rgb(73.4375%, 81.140137%, 91.445923%)" offset="0.265625"/><stop stop-opacity="1" stop-color="rgb(73.046875%, 80.862427%, 91.319275%)" offset="0.269531"/><stop stop-opacity="1" stop-color="rgb(72.65625%, 80.584717%, 91.194153%)" offset="0.273438"/><stop stop-opacity="1" stop-color="rgb(72.265625%, 80.307007%, 91.067505%)" offset="0.277344"/><stop stop-opacity="1" stop-color="rgb(71.875%, 80.030823%, 90.942383%)" offset="0.28125"/><stop stop-opacity="1" stop-color="rgb(71.484375%, 79.753113%, 90.817261%)" offset="0.285156"/><stop stop-opacity="1" stop-color="rgb(71.09375%, 79.475403%, 90.692139%)" offset="0.289062"/><stop stop-opacity="1" stop-color="rgb(70.703125%, 79.197693%, 90.565491%)" offset="0.292969"/><stop stop-opacity="1" stop-color="rgb(70.3125%, 78.921509%, 90.440369%)" offset="0.296875"/><stop stop-opacity="1" stop-color="rgb(69.921875%, 78.643799%, 90.313721%)" offset="0.300781"/><stop stop-opacity="1" stop-color="rgb(69.53125%, 78.366089%, 90.188599%)" offset="0.304688"/><stop stop-opacity="1" stop-color="rgb(69.140625%, 78.088379%, 90.061951%)" offset="0.308594"/><stop stop-opacity="1" stop-color="rgb(68.75%, 77.812195%, 89.936829%)" offset="0.3125"/><stop stop-opacity="1" stop-color="rgb(68.359375%, 77.534485%, 89.810181%)" offset="0.316406"/><stop stop-opacity="1" stop-color="rgb(67.96875%, 77.256775%, 89.685059%)" offset="0.320312"/><stop stop-opacity="1" stop-color="rgb(67.578125%, 76.979065%, 89.558411%)" offset="0.324219"/><stop stop-opacity="1" stop-color="rgb(67.1875%, 76.702881%, 89.433289%)" offset="0.328125"/><stop stop-opacity="1" stop-color="rgb(66.796875%, 76.425171%, 89.306641%)" offset="0.332031"/><stop stop-opacity="1" stop-color="rgb(66.40625%, 76.147461%, 89.181519%)" offset="0.335938"/><stop stop-opacity="1" stop-color="rgb(66.015625%, 75.869751%, 89.054871%)" offset="0.339844"/><stop stop-opacity="1" stop-color="rgb(65.625%, 75.593567%, 88.929749%)" offset="0.34375"/><stop stop-opacity="1" stop-color="rgb(65.234375%, 75.315857%, 88.804626%)" offset="0.347656"/><stop stop-opacity="1" stop-color="rgb(64.84375%, 75.038147%, 88.679504%)" offset="0.351562"/><stop stop-opacity="1" stop-color="rgb(64.453125%, 74.760437%, 88.552856%)" offset="0.355469"/><stop stop-opacity="1" stop-color="rgb(64.0625%, 74.484253%, 88.427734%)" offset="0.359375"/><stop stop-opacity="1" stop-color="rgb(63.671875%, 74.206543%, 88.301086%)" offset="0.363281"/><stop stop-opacity="1" stop-color="rgb(63.28125%, 73.928833%, 88.175964%)" offset="0.367188"/><stop stop-opacity="1" stop-color="rgb(62.890625%, 73.651123%, 88.049316%)" offset="0.371094"/><stop stop-opacity="1" stop-color="rgb(62.5%, 73.374939%, 87.924194%)" offset="0.375"/><stop stop-opacity="1" stop-color="rgb(62.109375%, 73.097229%, 87.797546%)" offset="0.378906"/><stop stop-opacity="1" stop-color="rgb(61.71875%, 72.819519%, 87.672424%)" offset="0.382812"/><stop stop-opacity="1" stop-color="rgb(61.328125%, 72.541809%, 87.545776%)" offset="0.386719"/><stop stop-opacity="1" stop-color="rgb(60.9375%, 72.265625%, 87.420654%)" offset="0.390625"/><stop stop-opacity="1" stop-color="rgb(60.546875%, 71.987915%, 87.294006%)" offset="0.394531"/><stop stop-opacity="1" stop-color="rgb(60.15625%, 71.710205%, 87.168884%)" offset="0.398438"/><stop stop-opacity="1" stop-color="rgb(59.765625%, 71.432495%, 87.043762%)" offset="0.402344"/><stop stop-opacity="1" stop-color="rgb(59.375%, 71.154785%, 86.91864%)" offset="0.40625"/><stop stop-opacity="1" stop-color="rgb(58.984375%, 70.877075%, 86.791992%)" offset="0.410156"/><stop stop-opacity="1" stop-color="rgb(58.59375%, 70.600891%, 86.66687%)" offset="0.414062"/><stop stop-opacity="1" stop-color="rgb(58.203125%, 70.323181%, 86.540222%)" offset="0.417969"/><stop stop-opacity="1" stop-color="rgb(57.8125%, 70.045471%, 86.4151%)" offset="0.421875"/><stop stop-opacity="1" stop-color="rgb(57.421875%, 69.767761%, 86.288452%)" offset="0.425781"/><stop stop-opacity="1" stop-color="rgb(57.03125%, 69.491577%, 86.16333%)" offset="0.429688"/><stop stop-opacity="1" stop-color="rgb(56.640625%, 69.213867%, 86.036682%)" offset="0.433594"/><stop stop-opacity="1" stop-color="rgb(56.25%, 68.936157%, 85.91156%)" offset="0.4375"/><stop stop-opacity="1" stop-color="rgb(55.859375%, 68.658447%, 85.784912%)" offset="0.441406"/><stop stop-opacity="1" stop-color="rgb(55.46875%, 68.382263%, 85.65979%)" offset="0.445312"/><stop stop-opacity="1" stop-color="rgb(55.078125%, 68.104553%, 85.533142%)" offset="0.449219"/><stop stop-opacity="1" stop-color="rgb(54.6875%, 67.826843%, 85.40802%)" offset="0.453125"/><stop stop-opacity="1" stop-color="rgb(54.296875%, 67.549133%, 85.282898%)" offset="0.457031"/><stop stop-opacity="1" stop-color="rgb(53.90625%, 67.272949%, 85.157776%)" offset="0.460938"/><stop stop-opacity="1" stop-color="rgb(53.515625%, 66.995239%, 85.031128%)" offset="0.464844"/><stop stop-opacity="1" stop-color="rgb(53.125%, 66.717529%, 84.906006%)" offset="0.46875"/><stop stop-opacity="1" stop-color="rgb(52.734375%, 66.439819%, 84.779358%)" offset="0.472656"/><stop stop-opacity="1" stop-color="rgb(52.34375%, 66.163635%, 84.654236%)" offset="0.476562"/><stop stop-opacity="1" stop-color="rgb(51.953125%, 65.885925%, 84.527588%)" offset="0.480469"/><stop stop-opacity="1" stop-color="rgb(51.5625%, 65.608215%, 84.402466%)" offset="0.484375"/><stop stop-opacity="1" stop-color="rgb(51.171875%, 65.330505%, 84.275818%)" offset="0.488281"/><stop stop-opacity="1" stop-color="rgb(50.78125%, 65.054321%, 84.150696%)" offset="0.492188"/><stop stop-opacity="1" stop-color="rgb(50.390625%, 64.776611%, 84.024048%)" offset="0.496094"/><stop stop-opacity="1" stop-color="rgb(50%, 64.498901%, 83.898926%)" offset="0.5"/><stop stop-opacity="1" stop-color="rgb(49.609375%, 64.221191%, 83.772278%)" offset="0.503906"/><stop stop-opacity="1" stop-color="rgb(49.21875%, 63.945007%, 83.647156%)" offset="0.507812"/><stop stop-opacity="1" stop-color="rgb(48.828125%, 63.667297%, 83.520508%)" offset="0.511719"/><stop stop-opacity="1" stop-color="rgb(48.4375%, 63.389587%, 83.395386%)" offset="0.515625"/><stop stop-opacity="1" stop-color="rgb(48.046875%, 63.111877%, 83.270264%)" offset="0.519531"/><stop stop-opacity="1" stop-color="rgb(47.65625%, 62.835693%, 83.145142%)" offset="0.523438"/><stop stop-opacity="1" stop-color="rgb(47.265625%, 62.557983%, 83.018494%)" offset="0.527344"/><stop stop-opacity="1" stop-color="rgb(46.875%, 62.280273%, 82.893372%)" offset="0.53125"/><stop stop-opacity="1" stop-color="rgb(46.484375%, 62.002563%, 82.766724%)" offset="0.535156"/><stop stop-opacity="1" stop-color="rgb(46.09375%, 61.726379%, 82.641602%)" offset="0.539062"/><stop stop-opacity="1" stop-color="rgb(45.703125%, 61.448669%, 82.514954%)" offset="0.542969"/><stop stop-opacity="1" stop-color="rgb(45.3125%, 61.170959%, 82.389832%)" offset="0.546875"/><stop stop-opacity="1" stop-color="rgb(44.921875%, 60.89325%, 82.263184%)" offset="0.550781"/><stop stop-opacity="1" stop-color="rgb(44.53125%, 60.617065%, 82.138062%)" offset="0.554688"/><stop stop-opacity="1" stop-color="rgb(44.140625%, 60.339355%, 82.011414%)" offset="0.558594"/><stop stop-opacity="1" stop-color="rgb(43.75%, 60.061646%, 81.886292%)" offset="0.5625"/><stop stop-opacity="1" stop-color="rgb(43.359375%, 59.783936%, 81.759644%)" offset="0.566406"/><stop stop-opacity="1" stop-color="rgb(42.96875%, 59.507751%, 81.634521%)" offset="0.570312"/><stop stop-opacity="1" stop-color="rgb(42.578125%, 59.230042%, 81.509399%)" offset="0.574219"/><stop stop-opacity="1" stop-color="rgb(42.1875%, 58.952332%, 81.384277%)" offset="0.578125"/><stop stop-opacity="1" stop-color="rgb(41.796875%, 58.674622%, 81.257629%)" offset="0.582031"/><stop stop-opacity="1" stop-color="rgb(41.40625%, 58.398438%, 81.132507%)" offset="0.585938"/><stop stop-opacity="1" stop-color="rgb(41.015625%, 58.120728%, 81.005859%)" offset="0.589844"/><stop stop-opacity="1" stop-color="rgb(40.625%, 57.843018%, 80.880737%)" offset="0.59375"/><stop stop-opacity="1" stop-color="rgb(40.234375%, 57.565308%, 80.754089%)" offset="0.597656"/><stop stop-opacity="1" stop-color="rgb(39.84375%, 57.287598%, 80.628967%)" offset="0.601562"/><stop stop-opacity="1" stop-color="rgb(39.453125%, 57.009888%, 80.502319%)" offset="0.605469"/><stop stop-opacity="1" stop-color="rgb(39.0625%, 56.733704%, 80.377197%)" offset="0.609375"/><stop stop-opacity="1" stop-color="rgb(38.671875%, 56.455994%, 80.250549%)" offset="0.613281"/><stop stop-opacity="1" stop-color="rgb(38.28125%, 56.178284%, 80.125427%)" offset="0.617188"/><stop stop-opacity="1" stop-color="rgb(37.890625%, 55.900574%, 79.998779%)" offset="0.621094"/><stop stop-opacity="1" stop-color="rgb(37.5%, 55.62439%, 79.873657%)" offset="0.625"/><stop stop-opacity="1" stop-color="rgb(37.109375%, 55.34668%, 79.748535%)" offset="0.628906"/><stop stop-opacity="1" stop-color="rgb(36.71875%, 55.06897%, 79.623413%)" offset="0.632812"/><stop stop-opacity="1" stop-color="rgb(36.328125%, 54.79126%, 79.496765%)" offset="0.636719"/><stop stop-opacity="1" stop-color="rgb(35.9375%, 54.515076%, 79.371643%)" offset="0.640625"/><stop stop-opacity="1" stop-color="rgb(35.546875%, 54.237366%, 79.244995%)" offset="0.644531"/><stop stop-opacity="1" stop-color="rgb(35.15625%, 53.959656%, 79.119873%)" offset="0.648438"/><stop stop-opacity="1" stop-color="rgb(34.765625%, 53.681946%, 78.993225%)" offset="0.652344"/><stop stop-opacity="1" stop-color="rgb(34.375%, 53.405762%, 78.868103%)" offset="0.65625"/><stop stop-opacity="1" stop-color="rgb(33.984375%, 53.128052%, 78.741455%)" offset="0.660156"/><stop stop-opacity="1" stop-color="rgb(33.59375%, 52.850342%, 78.616333%)" offset="0.664062"/><stop stop-opacity="1" stop-color="rgb(33.203125%, 52.572632%, 78.489685%)" offset="0.667969"/><stop stop-opacity="1" stop-color="rgb(32.8125%, 52.296448%, 78.364563%)" offset="0.671875"/><stop stop-opacity="1" stop-color="rgb(32.421875%, 52.018738%, 78.237915%)" offset="0.675781"/><stop stop-opacity="1" stop-color="rgb(32.03125%, 51.741028%, 78.112793%)" offset="0.679688"/><stop stop-opacity="1" stop-color="rgb(31.640625%, 51.463318%, 77.986145%)" offset="0.683594"/><stop stop-opacity="1" stop-color="rgb(31.25%, 51.187134%, 77.861023%)" offset="0.6875"/><stop stop-opacity="1" stop-color="rgb(30.859375%, 50.909424%, 77.735901%)" offset="0.691406"/><stop stop-opacity="1" stop-color="rgb(30.46875%, 50.631714%, 77.610779%)" offset="0.695312"/><stop stop-opacity="1" stop-color="rgb(30.078125%, 50.354004%, 77.484131%)" offset="0.699219"/><stop stop-opacity="1" stop-color="rgb(29.6875%, 50.07782%, 77.359009%)" offset="0.703125"/><stop stop-opacity="1" stop-color="rgb(29.296875%, 49.80011%, 77.232361%)" offset="0.707031"/><stop stop-opacity="1" stop-color="rgb(28.90625%, 49.5224%, 77.107239%)" offset="0.710938"/><stop stop-opacity="1" stop-color="rgb(28.515625%, 49.24469%, 76.980591%)" offset="0.714844"/><stop stop-opacity="1" stop-color="rgb(28.125%, 48.968506%, 76.855469%)" offset="0.71875"/><stop stop-opacity="1" stop-color="rgb(27.734375%, 48.690796%, 76.728821%)" offset="0.722656"/><stop stop-opacity="1" stop-color="rgb(27.34375%, 48.413086%, 76.603699%)" offset="0.726562"/><stop stop-opacity="1" stop-color="rgb(26.953125%, 48.135376%, 76.477051%)" offset="0.730469"/><stop stop-opacity="1" stop-color="rgb(26.5625%, 47.859192%, 76.351929%)" offset="0.734375"/><stop stop-opacity="1" stop-color="rgb(26.171875%, 47.581482%, 76.225281%)" offset="0.738281"/><stop stop-opacity="1" stop-color="rgb(25.78125%, 47.303772%, 76.100159%)" offset="0.742188"/><stop stop-opacity="1" stop-color="rgb(25.390625%, 47.026062%, 75.975037%)" offset="0.746094"/><stop stop-opacity="1" stop-color="rgb(25%, 46.749878%, 75.849915%)" offset="0.75"/><stop stop-opacity="1" stop-color="rgb(24.609375%, 46.472168%, 75.723267%)" offset="0.753906"/><stop stop-opacity="1" stop-color="rgb(24.21875%, 46.194458%, 75.598145%)" offset="0.757812"/><stop stop-opacity="1" stop-color="rgb(23.828125%, 45.916748%, 75.471497%)" offset="0.761719"/><stop stop-opacity="1" stop-color="rgb(23.4375%, 45.640564%, 75.346375%)" offset="0.765625"/><stop stop-opacity="1" stop-color="rgb(23.046875%, 45.362854%, 75.219727%)" offset="0.769531"/><stop stop-opacity="1" stop-color="rgb(22.65625%, 45.085144%, 75.094604%)" offset="0.773438"/><stop stop-opacity="1" stop-color="rgb(22.265625%, 44.807434%, 74.967957%)" offset="0.777344"/><stop stop-opacity="1" stop-color="rgb(21.875%, 44.53125%, 74.842834%)" offset="0.78125"/><stop stop-opacity="1" stop-color="rgb(21.484375%, 44.25354%, 74.716187%)" offset="0.785156"/><stop stop-opacity="1" stop-color="rgb(21.09375%, 43.97583%, 74.591064%)" offset="0.789062"/><stop stop-opacity="1" stop-color="rgb(20.703125%, 43.69812%, 74.464417%)" offset="0.792969"/><stop stop-opacity="1" stop-color="rgb(20.3125%, 43.42041%, 74.339294%)" offset="0.796875"/><stop stop-opacity="1" stop-color="rgb(19.921875%, 43.1427%, 74.214172%)" offset="0.800781"/><stop stop-opacity="1" stop-color="rgb(19.53125%, 42.866516%, 74.08905%)" offset="0.804688"/><stop stop-opacity="1" stop-color="rgb(19.140625%, 42.588806%, 73.962402%)" offset="0.808594"/><stop stop-opacity="1" stop-color="rgb(18.75%, 42.311096%, 73.83728%)" offset="0.8125"/><stop stop-opacity="1" stop-color="rgb(18.359375%, 42.033386%, 73.710632%)" offset="0.816406"/><stop stop-opacity="1" stop-color="rgb(17.96875%, 41.757202%, 73.58551%)" offset="0.820312"/><stop stop-opacity="1" stop-color="rgb(17.578125%, 41.479492%, 73.458862%)" offset="0.824219"/><stop stop-opacity="1" stop-color="rgb(17.1875%, 41.201782%, 73.33374%)" offset="0.828125"/><stop stop-opacity="1" stop-color="rgb(16.796875%, 40.924072%, 73.207092%)" offset="0.832031"/><stop stop-opacity="1" stop-color="rgb(16.40625%, 40.647888%, 73.08197%)" offset="0.835938"/><stop stop-opacity="1" stop-color="rgb(16.015625%, 40.370178%, 72.955322%)" offset="0.839844"/><stop stop-opacity="1" stop-color="rgb(15.625%, 40.092468%, 72.8302%)" offset="0.84375"/><stop stop-opacity="1" stop-color="rgb(15.234375%, 39.814758%, 72.703552%)" offset="0.847656"/><stop stop-opacity="1" stop-color="rgb(14.84375%, 39.538574%, 72.57843%)" offset="0.851562"/><stop stop-opacity="1" stop-color="rgb(14.453125%, 39.260864%, 72.451782%)" offset="0.855469"/><stop stop-opacity="1" stop-color="rgb(14.0625%, 38.983154%, 72.32666%)" offset="0.859375"/><stop stop-opacity="1" stop-color="rgb(13.671875%, 38.705444%, 72.201538%)" offset="0.863281"/><stop stop-opacity="1" stop-color="rgb(13.28125%, 38.42926%, 72.076416%)" offset="0.867188"/><stop stop-opacity="1" stop-color="rgb(12.890625%, 38.15155%, 71.949768%)" offset="0.871094"/><stop stop-opacity="1" stop-color="rgb(12.5%, 37.87384%, 71.824646%)" offset="0.875"/><stop stop-opacity="1" stop-color="rgb(12.109375%, 37.59613%, 71.697998%)" offset="0.878906"/><stop stop-opacity="1" stop-color="rgb(11.71875%, 37.319946%, 71.572876%)" offset="0.882812"/><stop stop-opacity="1" stop-color="rgb(11.328125%, 37.042236%, 71.446228%)" offset="0.886719"/><stop stop-opacity="1" stop-color="rgb(10.9375%, 36.764526%, 71.321106%)" offset="0.890625"/><stop stop-opacity="1" stop-color="rgb(10.546875%, 36.486816%, 71.194458%)" offset="0.894531"/><stop stop-opacity="1" stop-color="rgb(10.15625%, 36.210632%, 71.069336%)" offset="0.898438"/><stop stop-opacity="1" stop-color="rgb(9.765625%, 35.932922%, 70.942688%)" offset="0.902344"/><stop stop-opacity="1" stop-color="rgb(9.375%, 35.655212%, 70.817566%)" offset="0.90625"/><stop stop-opacity="1" stop-color="rgb(8.984375%, 35.377502%, 70.690918%)" offset="0.910156"/><stop stop-opacity="1" stop-color="rgb(8.59375%, 35.101318%, 70.565796%)" offset="0.914062"/><stop stop-opacity="1" stop-color="rgb(8.203125%, 34.823608%, 70.440674%)" offset="0.917969"/><stop stop-opacity="1" stop-color="rgb(7.8125%, 34.545898%, 70.315552%)" offset="0.921875"/><stop stop-opacity="1" stop-color="rgb(7.421875%, 34.268188%, 70.188904%)" offset="0.925781"/><stop stop-opacity="1" stop-color="rgb(7.03125%, 33.992004%, 70.063782%)" offset="0.929688"/><stop stop-opacity="1" stop-color="rgb(6.640625%, 33.714294%, 69.937134%)" offset="0.933594"/><stop stop-opacity="1" stop-color="rgb(6.25%, 33.436584%, 69.812012%)" offset="0.9375"/><stop stop-opacity="1" stop-color="rgb(5.859375%, 33.158875%, 69.685364%)" offset="0.941406"/><stop stop-opacity="1" stop-color="rgb(5.46875%, 32.88269%, 69.560242%)" offset="0.945312"/><stop stop-opacity="1" stop-color="rgb(5.078125%, 32.60498%, 69.433594%)" offset="0.949219"/><stop stop-opacity="1" stop-color="rgb(4.6875%, 32.327271%, 69.308472%)" offset="0.953125"/><stop stop-opacity="1" stop-color="rgb(4.296875%, 32.049561%, 69.181824%)" offset="0.957031"/><stop stop-opacity="1" stop-color="rgb(3.90625%, 31.773376%, 69.056702%)" offset="0.960938"/><stop stop-opacity="1" stop-color="rgb(3.515625%, 31.495667%, 68.930054%)" offset="0.964844"/><stop stop-opacity="1" stop-color="rgb(3.125%, 31.217957%, 68.804932%)" offset="0.96875"/><stop stop-opacity="1" stop-color="rgb(2.734375%, 30.940247%, 68.67981%)" offset="0.972656"/><stop stop-opacity="1" stop-color="rgb(2.34375%, 30.664062%, 68.554688%)" offset="0.976562"/><stop stop-opacity="1" stop-color="rgb(1.953125%, 30.386353%, 68.42804%)" offset="0.980469"/><stop stop-opacity="1" stop-color="rgb(1.5625%, 30.108643%, 68.302917%)" offset="0.984375"/><stop stop-opacity="1" stop-color="rgb(1.171875%, 29.830933%, 68.17627%)" offset="0.988281"/><stop stop-opacity="1" stop-color="rgb(0.78125%, 29.553223%, 68.051147%)" offset="0.992188"/><stop stop-opacity="1" stop-color="rgb(0.390625%, 29.275513%, 67.9245%)" offset="0.996094"/><stop stop-opacity="1" stop-color="rgb(0%, 28.999329%, 67.799377%)" offset="1"/></linearGradient><clipPath id="46ae7b0fd0"><path d="M 432.359375 232 L 513 232 L 513 307.953125 L 432.359375 307.953125 Z M 432.359375 232 " clip-rule="nonzero"/></clipPath><clipPath id="12e1ad28d2"><path d="M 652 200.703125 L 691 200.703125 L 691 239 L 652 239 Z M 652 200.703125 " clip-rule="nonzero"/></clipPath><clipPath id="6ba4179668"><path d="M 652.359375 163 L 733 163 L 733 238.722656 L 652.359375 238.722656 Z M 652.359375 163 " clip-rule="nonzero"/></clipPath><clipPath id="12c895c490"><path d="M 872 131.472656 L 911 131.472656 L 911 170 L 872 170 Z M 872 131.472656 " clip-rule="nonzero"/></clipPath><clipPath id="e8946fcc7a"><path d="M 872.359375 94 L 953 94 L 953 169 L 872.359375 169 Z M 872.359375 94 " clip-rule="nonzero"/></clipPath><clipPath id="60520f2d2b"><path d="M 1092 62.242188 L 1131 62.242188 L 1131 101 L 1092 101 Z M 1092 62.242188 " clip-rule="nonzero"/></clipPath><clipPath id="c67206703d"><path d="M 965.480469 11.726562 L 973 11.726562 L 973 78.476562 L 965.480469 78.476562 Z M 965.480469 11.726562 " clip-rule="nonzero"/></clipPath><clipPath id="f73e4fc4cb"><path d="M 972 13 L 1012.730469 13 L 1012.730469 44 L 972 44 Z M 972 13 " clip-rule="nonzero"/></clipPath></defs><rect x="-120" width="1440" fill="#ffffff" y="-44.999998" height="539.99998" fill-opacity="1"/><rect x="-120" width="1440" fill="#ffffff" y="-44.999998" height="539.99998" fill-opacity="1"/><rect x="-120" fill="url(#faefa22807)" width="1440" y="-44.999998" height="539.99998"/><path fill="#545454" d="M 656.789062 230.171875 C 643.195312 242.179688 628.347656 255.445312 614.75 267.449219 C 614.757812 267.460938 614.765625 267.472656 614.769531 267.484375 C 614.910156 267.675781 615.042969 267.882812 615.15625 268.117188 C 615.292969 268.34375 615.394531 268.574219 615.480469 268.800781 C 616.488281 271.035156 617.078125 273.445312 617.25 275.875 C 631.996094 262.847656 648 248.566406 662.746094 235.542969 C 660.421875 234.167969 658.378906 232.332031 656.789062 230.171875 Z M 656.789062 230.171875 " fill-opacity="1" fill-rule="nonzero"/><path fill="#545454" d="M 545.625 230.242188 C 545.414062 233.210938 544.5 236.0625 543.035156 238.585938 C 555.390625 249.5 569 261.667969 581.359375 272.582031 C 582 269.871094 583.207031 267.308594 584.964844 265.132812 C 572.265625 253.921875 558.320312 241.457031 545.625 230.242188 Z M 545.625 230.242188 " fill-opacity="1" fill-rule="nonzero"/><g clip-path="url(#46ae7b0fd0)"><path fill="#545454" d="M 463.394531 273.203125 C 460.289062 270.84375 456.398438 269.390625 451.976562 269.152344 C 441.226562 268.570312 433.457031 278.316406 432.921875 288.238281 C 432.34375 299.011719 442.074219 306.792969 451.976562 307.328125 C 462.296875 307.882812 469.851562 298.921875 470.914062 289.429688 C 471 289.066406 471.054688 288.683594 471.03125 288.238281 C 471.054688 287.808594 471 287.425781 470.917969 287.070312 C 470.621094 284.203125 469.824219 281.566406 468.578125 279.257812 C 483.046875 266.484375 498.140625 253.078125 512.605469 240.304688 C 510.910156 238.09375 509.703125 235.519531 509.175781 232.703125 C 494.125 245.992188 478.445312 259.914062 463.394531 273.203125 Z M 440.898438 288.238281 C 440.128906 273.925781 462.289062 274 463.054688 288.238281 C 462.285156 302.542969 441.667969 302.542969 440.898438 288.238281 Z M 440.898438 288.238281 " fill-opacity="1" fill-rule="nonzero"/></g><path fill="#545454" d="M 546.15625 227.265625 C 546.140625 227.117188 546.113281 226.96875 546.085938 226.824219 C 546.074219 226.621094 546.054688 226.417969 546.015625 226.203125 C 544.210938 216.597656 535.332031 209.832031 525.613281 210.648438 C 515.722656 211.480469 508.527344 219.917969 508.253906 229.644531 C 508.21875 230.90625 508.328125 232.136719 508.550781 233.328125 C 509.078125 236.144531 510.285156 238.71875 511.980469 240.929688 C 515.730469 245.816406 521.855469 248.894531 528.222656 248.703125 C 534.855469 248.503906 540.515625 244.621094 543.660156 239.210938 C 545.125 236.691406 546.042969 233.835938 546.25 230.871094 C 546.335938 229.679688 546.3125 228.476562 546.15625 227.265625 Z M 528.222656 240.714844 C 521.621094 241.308594 516.550781 235.980469 516.230469 229.644531 C 515.941406 223.941406 520.640625 219.644531 525.84375 218.613281 C 531.945312 217.410156 536.996094 222.386719 538.234375 227.898438 C 538.746094 234.230469 534.933594 240.109375 528.222656 240.714844 Z M 528.222656 240.714844 " fill-opacity="1" fill-rule="nonzero"/><path fill="#545454" d="M 615.785156 267.488281 C 615.667969 267.253906 615.535156 267.046875 615.398438 266.859375 C 615.390625 266.84375 615.382812 266.835938 615.378906 266.824219 C 609.84375 258.066406 598.851562 255.25 589.65625 260.117188 C 587.527344 261.242188 585.753906 262.746094 584.335938 264.503906 C 582.582031 266.679688 581.375 269.242188 580.734375 271.953125 C 579.585938 276.800781 580.242188 282.128906 582.78125 286.558594 C 587.816406 295.351562 598.875 297.722656 607.679688 293.730469 C 614.996094 290.414062 618.414062 282.734375 617.878906 275.246094 C 617.707031 272.816406 617.117188 270.40625 616.109375 268.171875 C 616.019531 267.945312 615.917969 267.71875 615.785156 267.488281 Z M 604.382812 286.449219 C 599.648438 289.257812 593.253906 287.554688 590.101562 283.203125 C 586.449219 278.15625 587.835938 271.042969 592.875 267.507812 C 598.398438 263.632812 605.667969 265.960938 608.898438 271.519531 C 611.660156 277.054688 609.601562 283.347656 604.382812 286.449219 Z M 604.382812 286.449219 " fill-opacity="1" fill-rule="nonzero"/><g clip-path="url(#12e1ad28d2)"><path fill="#545454" d="M 690.796875 219.019531 C 690.515625 208.992188 682.070312 201.414062 672.429688 200.824219 C 672.21875 200.800781 672 200.785156 671.769531 200.789062 C 671.539062 200.785156 671.324219 200.800781 671.117188 200.824219 C 661.097656 201.410156 653.574219 208.992188 652.734375 219.019531 C 652.367188 223.410156 653.730469 227.488281 656.164062 230.800781 C 657.75 232.960938 659.796875 234.792969 662.121094 236.167969 C 665.5 238.171875 669.464844 239.207031 673.464844 238.871094 C 683.605469 238.019531 691.078125 229.058594 690.796875 219.019531 Z M 673.234375 230.90625 C 666.132812 232.3125 660.53125 225.550781 660.714844 219.019531 C 660.875 213.179688 666.265625 208.933594 671.769531 208.78125 C 677.519531 208.941406 682.332031 213.183594 682.820312 219.019531 C 683.328125 225.070312 678.910156 229.785156 673.234375 230.90625 Z M 673.234375 230.90625 " fill-opacity="1" fill-rule="nonzero"/></g><path fill="#545454" d="M 876.789062 160.941406 C 863.195312 172.949219 848.347656 186.214844 834.75 198.21875 C 834.757812 198.230469 834.765625 198.242188 834.769531 198.253906 C 834.910156 198.445312 835.042969 198.652344 835.15625 198.886719 C 835.292969 199.113281 835.394531 199.34375 835.480469 199.570312 C 836.488281 201.804688 837.078125 204.214844 837.25 206.644531 C 851.996094 193.617188 868 179.335938 882.746094 166.3125 C 880.421875 164.933594 878.378906 163.101562 876.789062 160.941406 Z M 876.789062 160.941406 " fill-opacity="1" fill-rule="nonzero"/><path fill="#545454" d="M 765.625 161.011719 C 765.414062 163.980469 764.5 166.832031 763.035156 169.355469 C 775.390625 180.265625 789 192.4375 801.359375 203.351562 C 802 200.640625 803.207031 198.078125 804.964844 195.902344 C 792.265625 184.691406 778.320312 172.226562 765.625 161.011719 Z M 765.625 161.011719 " fill-opacity="1" fill-rule="nonzero"/><g clip-path="url(#6ba4179668)"><path fill="#545454" d="M 683.394531 203.972656 C 680.289062 201.613281 676.398438 200.160156 671.976562 199.921875 C 661.226562 199.339844 653.457031 209.085938 652.921875 219.007812 C 652.34375 229.78125 662.074219 237.5625 671.976562 238.09375 C 682.296875 238.652344 689.851562 229.691406 690.914062 220.199219 C 691 219.835938 691.054688 219.449219 691.03125 219.007812 C 691.054688 218.578125 691 218.195312 690.917969 217.839844 C 690.621094 214.972656 689.824219 212.335938 688.578125 210.027344 C 703.046875 197.253906 718.140625 183.847656 732.605469 171.074219 C 730.910156 168.863281 729.703125 166.289062 729.175781 163.472656 C 714.125 176.761719 698.445312 190.683594 683.394531 203.972656 Z M 660.898438 219.007812 C 660.128906 204.695312 682.289062 204.769531 683.054688 219.007812 C 682.285156 233.3125 661.667969 233.3125 660.898438 219.007812 Z M 660.898438 219.007812 " fill-opacity="1" fill-rule="nonzero"/></g><path fill="#545454" d="M 766.15625 158.035156 C 766.140625 157.886719 766.113281 157.738281 766.085938 157.59375 C 766.074219 157.390625 766.054688 157.1875 766.015625 156.972656 C 764.210938 147.367188 755.332031 140.601562 745.613281 141.417969 C 735.722656 142.25 728.527344 150.6875 728.253906 160.414062 C 728.21875 161.675781 728.328125 162.90625 728.550781 164.097656 C 729.078125 166.914062 730.285156 169.488281 731.980469 171.695312 C 735.730469 176.585938 741.855469 179.664062 748.222656 179.472656 C 754.855469 179.273438 760.515625 175.390625 763.660156 169.980469 C 765.125 167.457031 766.042969 164.605469 766.25 161.640625 C 766.335938 160.449219 766.3125 159.246094 766.15625 158.035156 Z M 748.222656 171.484375 C 741.621094 172.074219 736.550781 166.75 736.230469 160.414062 C 735.941406 154.707031 740.640625 150.414062 745.84375 149.382812 C 751.945312 148.175781 756.996094 153.15625 758.234375 158.667969 C 758.746094 165 754.933594 170.878906 748.222656 171.484375 Z M 748.222656 171.484375 " fill-opacity="1" fill-rule="nonzero"/><path fill="#545454" d="M 835.785156 198.257812 C 835.667969 198.023438 835.535156 197.816406 835.398438 197.625 C 835.390625 197.613281 835.382812 197.601562 835.378906 197.59375 C 829.84375 188.835938 818.851562 186.019531 809.65625 190.886719 C 807.527344 192.011719 805.753906 193.515625 804.335938 195.273438 C 802.582031 197.449219 801.375 200.011719 800.734375 202.722656 C 799.585938 207.570312 800.242188 212.898438 802.78125 217.328125 C 807.816406 226.121094 818.875 228.488281 827.679688 224.5 C 834.996094 221.183594 838.414062 213.503906 837.878906 206.015625 C 837.707031 203.585938 837.117188 201.175781 836.109375 198.941406 C 836.019531 198.714844 835.917969 198.488281 835.785156 198.257812 Z M 824.382812 217.21875 C 819.648438 220.027344 813.253906 218.324219 810.101562 213.972656 C 806.449219 208.925781 807.835938 201.8125 812.875 198.277344 C 818.398438 194.402344 825.667969 196.726562 828.898438 202.289062 C 831.660156 207.824219 829.601562 214.117188 824.382812 217.21875 Z M 824.382812 217.21875 " fill-opacity="1" fill-rule="nonzero"/><g clip-path="url(#12c895c490)"><path fill="#545454" d="M 910.796875 149.789062 C 910.515625 139.761719 902.070312 132.183594 892.429688 131.59375 C 892.21875 131.566406 892 131.554688 891.769531 131.558594 C 891.539062 131.554688 891.324219 131.566406 891.117188 131.59375 C 881.097656 132.179688 873.574219 139.761719 872.734375 149.789062 C 872.367188 154.179688 873.730469 158.257812 876.164062 161.570312 C 877.75 163.730469 879.796875 165.5625 882.121094 166.9375 C 885.5 168.9375 889.464844 169.976562 893.464844 169.640625 C 903.605469 168.785156 911.078125 159.828125 910.796875 149.789062 Z M 893.234375 161.675781 C 886.132812 163.082031 880.53125 156.320312 880.714844 149.789062 C 880.875 143.949219 886.265625 139.703125 891.769531 139.550781 C 897.519531 139.710938 902.332031 143.953125 902.820312 149.789062 C 903.328125 155.839844 898.910156 160.554688 893.234375 161.675781 Z M 893.234375 161.675781 " fill-opacity="1" fill-rule="nonzero"/></g><path fill="#545454" d="M 1096.789062 91.710938 C 1083.195312 103.71875 1068.347656 116.984375 1054.75 128.988281 C 1054.757812 129 1054.765625 129.011719 1054.769531 129.023438 C 1054.910156 129.214844 1055.042969 129.421875 1055.15625 129.65625 C 1055.292969 129.882812 1055.394531 130.113281 1055.480469 130.339844 C 1056.488281 132.574219 1057.078125 134.980469 1057.25 137.414062 C 1071.996094 124.386719 1088 110.105469 1102.746094 97.082031 C 1100.421875 95.703125 1098.378906 93.871094 1096.789062 91.710938 Z M 1096.789062 91.710938 " fill-opacity="1" fill-rule="nonzero"/><path fill="#545454" d="M 985.625 91.78125 C 985.414062 94.746094 984.5 97.601562 983.035156 100.125 C 995.390625 111.035156 1009 123.203125 1021.359375 134.121094 C 1022 131.410156 1023.207031 128.847656 1024.964844 126.671875 C 1012.265625 115.460938 998.320312 102.992188 985.625 91.78125 Z M 985.625 91.78125 " fill-opacity="1" fill-rule="nonzero"/><g clip-path="url(#e8946fcc7a)"><path fill="#545454" d="M 903.394531 134.742188 C 900.289062 132.382812 896.398438 130.929688 891.976562 130.691406 C 881.226562 130.109375 873.457031 139.855469 872.921875 149.777344 C 872.34375 160.550781 882.074219 168.332031 891.976562 168.863281 C 902.296875 169.421875 909.851562 160.460938 910.914062 150.96875 C 911 150.605469 911.054688 150.21875 911.03125 149.777344 C 911.054688 149.347656 911 148.964844 910.917969 148.609375 C 910.621094 145.742188 909.824219 143.105469 908.578125 140.796875 C 923.046875 128.023438 938.140625 114.617188 952.605469 101.839844 C 950.910156 99.632812 949.703125 97.058594 949.175781 94.242188 C 934.125 107.53125 918.445312 121.453125 903.394531 134.742188 Z M 880.898438 149.777344 C 880.128906 135.464844 902.289062 135.539062 903.054688 149.777344 C 902.285156 164.082031 881.667969 164.082031 880.898438 149.777344 Z M 880.898438 149.777344 " fill-opacity="1" fill-rule="nonzero"/></g><path fill="#545454" d="M 986.15625 88.804688 C 986.140625 88.65625 986.113281 88.507812 986.085938 88.363281 C 986.074219 88.160156 986.054688 87.957031 986.015625 87.742188 C 984.210938 78.136719 975.332031 71.371094 965.613281 72.1875 C 955.722656 73.019531 948.527344 81.457031 948.253906 91.179688 C 948.21875 92.445312 948.328125 93.675781 948.550781 94.867188 C 949.078125 97.683594 950.285156 100.257812 951.980469 102.464844 C 955.730469 107.355469 961.855469 110.433594 968.222656 110.242188 C 974.855469 110.042969 980.515625 106.15625 983.660156 100.75 C 985.125 98.226562 986.042969 95.375 986.25 92.410156 C 986.335938 91.21875 986.3125 90.015625 986.15625 88.804688 Z M 968.222656 102.25 C 961.621094 102.84375 956.550781 97.519531 956.230469 91.183594 C 955.941406 85.476562 960.640625 81.183594 965.84375 80.152344 C 971.945312 78.945312 976.996094 83.925781 978.234375 89.4375 C 978.746094 95.769531 974.933594 101.648438 968.222656 102.25 Z M 968.222656 102.25 " fill-opacity="1" fill-rule="nonzero"/><path fill="#545454" d="M 1055.785156 129.027344 C 1055.667969 128.792969 1055.535156 128.585938 1055.398438 128.394531 C 1055.390625 128.382812 1055.382812 128.371094 1055.378906 128.363281 C 1049.84375 119.601562 1038.851562 116.789062 1029.65625 121.65625 C 1027.527344 122.78125 1025.753906 124.285156 1024.335938 126.042969 C 1022.582031 128.21875 1021.375 130.78125 1020.734375 133.492188 C 1019.585938 138.339844 1020.242188 143.667969 1022.78125 148.097656 C 1027.816406 156.890625 1038.875 159.257812 1047.675781 155.269531 C 1054.996094 151.953125 1058.414062 144.273438 1057.878906 136.785156 C 1057.707031 134.355469 1057.117188 131.945312 1056.109375 129.710938 C 1056.019531 129.484375 1055.917969 129.257812 1055.785156 129.027344 Z M 1044.382812 147.988281 C 1039.648438 150.796875 1033.253906 149.09375 1030.101562 144.742188 C 1026.449219 139.695312 1027.835938 132.582031 1032.875 129.046875 C 1038.398438 125.167969 1045.667969 127.496094 1048.898438 133.058594 C 1051.660156 138.59375 1049.601562 144.886719 1044.382812 147.988281 Z M 1044.382812 147.988281 " fill-opacity="1" fill-rule="nonzero"/><g clip-path="url(#60520f2d2b)"><path fill="#545454" d="M 1130.796875 80.558594 C 1130.515625 70.53125 1122.070312 62.953125 1112.429688 62.363281 C 1112.21875 62.335938 1112 62.324219 1111.769531 62.328125 C 1111.539062 62.324219 1111.324219 62.335938 1111.113281 62.363281 C 1101.097656 62.949219 1093.574219 70.53125 1092.734375 80.558594 C 1092.367188 84.945312 1093.730469 89.027344 1096.164062 92.335938 C 1097.75 94.5 1099.796875 96.332031 1102.121094 97.707031 C 1105.5 99.707031 1109.464844 100.746094 1113.464844 100.410156 C 1123.605469 99.554688 1131.078125 90.59375 1130.796875 80.558594 Z M 1113.234375 92.445312 C 1106.132812 93.847656 1100.53125 87.089844 1100.714844 80.558594 C 1100.875 74.71875 1106.265625 70.472656 1111.769531 70.320312 C 1117.519531 70.480469 1122.332031 74.722656 1122.820312 80.558594 C 1123.328125 86.609375 1118.910156 91.320312 1113.234375 92.445312 Z M 1113.234375 92.445312 " fill-opacity="1" fill-rule="nonzero"/></g><path stroke-linecap="butt" transform="matrix(0.00430724, -0.747901, 0.749988, 0.00431926, 432.354732, 426.063039)" fill="none" stroke-linejoin="miter" d="M 0.00183068 2.001005 L 28.090869 2.001148 " stroke="#737373" stroke-width="4" stroke-opacity="1" stroke-miterlimit="4"/><path stroke-linecap="butt" transform="matrix(0.00430724, -0.747901, 0.749988, 0.00431926, 507.123966, 426.063039)" fill="none" stroke-linejoin="miter" d="M 0.00183297 2.001401 L 28.090871 2.001545 " stroke="#737373" stroke-width="4" stroke-opacity="1" stroke-miterlimit="4"/><path stroke-linecap="butt" transform="matrix(0.00430724, -0.747901, 0.749988, 0.00431926, 581.893224, 426.063039)" fill="none" stroke-linejoin="miter" d="M 0.00183507 2.001765 L 28.090873 2.001909 " stroke="#737373" stroke-width="4" stroke-opacity="1" stroke-miterlimit="4"/><path stroke-linecap="butt" transform="matrix(0.00430724, -0.747901, 0.749988, 0.00431926, 656.662411, 426.063039)" fill="none" stroke-linejoin="miter" d="M 0.00183773 2.002225 L 28.090876 2.002369 " stroke="#737373" stroke-width="4" stroke-opacity="1" stroke-miterlimit="4"/><path stroke-linecap="butt" transform="matrix(0.00430724, -0.747901, 0.749988, 0.00431926, 731.431669, 426.063039)" fill="none" stroke-linejoin="miter" d="M 0.00183983 2.002589 L 28.090848 1.997525 " stroke="#737373" stroke-width="4" stroke-opacity="1" stroke-miterlimit="4"/><path stroke-linecap="butt" transform="matrix(0.00430724, -0.747901, 0.749988, 0.00431926, 806.200855, 426.063039)" fill="none" stroke-linejoin="miter" d="M 0.00181241 1.997841 L 28.090851 1.997985 " stroke="#737373" stroke-width="4" stroke-opacity="1" stroke-miterlimit="4"/><path stroke-linecap="butt" transform="matrix(0.00430724, -0.747901, 0.749988, 0.00431926, 880.970041, 426.063039)" fill="none" stroke-linejoin="miter" d="M 0.00181506 1.998301 L 28.090853 1.998445 " stroke="#737373" stroke-width="4" stroke-opacity="1" stroke-miterlimit="4"/><path stroke-linecap="butt" transform="matrix(0.00430724, -0.747901, 0.749988, 0.00431926, 955.739371, 426.063039)" fill="none" stroke-linejoin="miter" d="M 0.00181661 1.998569 L 28.090855 1.998713 " stroke="#737373" stroke-width="4" stroke-opacity="1" stroke-miterlimit="4"/><path stroke-linecap="butt" transform="matrix(0.00430724, -0.747901, 0.749988, 0.00431926, 1030.508485, 426.063039)" fill="none" stroke-linejoin="miter" d="M 0.00181982 1.999125 L 28.090858 1.999269 " stroke="#737373" stroke-width="4" stroke-opacity="1" stroke-miterlimit="4"/><path stroke-linecap="butt" transform="matrix(0.00430724, -0.747901, 0.749988, 0.00431926, 1105.277864, 426.063039)" fill="none" stroke-linejoin="miter" d="M 0.001821 1.99933 L 28.090859 1.999473 " stroke="#737373" stroke-width="4" stroke-opacity="1" stroke-miterlimit="4"/><path stroke-linecap="butt" transform="matrix(0.0017056, -0.749338, 0.749998, 0.0017071, 464.047042, 426.073551)" fill="none" stroke-linejoin="miter" d="M -0.00154851 1.999787 L 71.076781 1.999604 " stroke="#737373" stroke-width="4" stroke-opacity="1" stroke-miterlimit="4"/><path stroke-linecap="butt" transform="matrix(0.0017056, -0.749338, 0.749998, 0.0017071, 542.389443, 426.073551)" fill="none" stroke-linejoin="miter" d="M -0.00154441 2.001584 L 71.076785 2.001401 " stroke="#737373" stroke-width="4" stroke-opacity="1" stroke-miterlimit="4"/><path stroke-linecap="butt" transform="matrix(0.0017056, -0.749338, 0.749998, 0.0017071, 620.731845, 426.073551)" fill="none" stroke-linejoin="miter" d="M -0.00155218 1.998173 L 71.076777 1.99799 " stroke="#737373" stroke-width="4" stroke-opacity="1" stroke-miterlimit="4"/><path stroke-linecap="butt" transform="matrix(0.0017056, -0.749338, 0.749998, 0.0017071, 699.074271, 426.073551)" fill="none" stroke-linejoin="miter" d="M -0.00154816 1.999939 L 71.076781 1.999756 " stroke="#737373" stroke-width="4" stroke-opacity="1" stroke-miterlimit="4"/><path stroke-linecap="butt" transform="matrix(0.0017056, -0.749338, 0.749998, 0.0017071, 777.416673, 426.073551)" fill="none" stroke-linejoin="miter" d="M -0.00154407 2.001736 L 71.076785 2.001553 " stroke="#737373" stroke-width="4" stroke-opacity="1" stroke-miterlimit="4"/><path stroke-linecap="butt" transform="matrix(0.0017056, -0.749338, 0.749998, 0.0017071, 855.759099, 426.073551)" fill="none" stroke-linejoin="miter" d="M -0.00155191 1.998293 L 71.076777 1.998111 " stroke="#737373" stroke-width="4" stroke-opacity="1" stroke-miterlimit="4"/><path stroke-linecap="butt" transform="matrix(0.0017056, -0.749338, 0.749998, 0.0017071, 934.101621, 426.073551)" fill="none" stroke-linejoin="miter" d="M -0.00154818 1.999931 L 71.076781 1.999748 " stroke="#737373" stroke-width="4" stroke-opacity="1" stroke-miterlimit="4"/><path stroke-linecap="butt" transform="matrix(0.0017056, -0.749338, 0.749998, 0.0017071, 1012.444047, 426.073551)" fill="none" stroke-linejoin="miter" d="M -0.00154416 2.001696 L 71.076785 2.001513 " stroke="#737373" stroke-width="4" stroke-opacity="1" stroke-miterlimit="4"/><path stroke-linecap="butt" transform="matrix(0.0017056, -0.749338, 0.749998, 0.0017071, 1090.786449, 426.073551)" fill="none" stroke-linejoin="miter" d="M -0.00155193 1.998286 L 71.076777 1.998103 " stroke="#737373" stroke-width="4" stroke-opacity="1" stroke-miterlimit="4"/><path stroke-linecap="butt" transform="matrix(0.0017056, -0.749338, 0.749998, 0.0017071, 1129.187982, 426.073551)" fill="none" stroke-linejoin="miter" d="M -0.00154946 1.999366 L 71.07678 1.999184 " stroke="#737373" stroke-width="4" stroke-opacity="1" stroke-miterlimit="4"/><g clip-path="url(#c67206703d)"><path fill="#545454" d="M 971.164062 11.726562 L 967.023438 11.726562 C 966.1875 11.726562 965.511719 12.398438 965.511719 13.230469 C 965.511719 14.058594 966.1875 14.734375 967.023438 14.734375 L 968.027344 14.734375 L 968.027344 78.476562 L 970.160156 78.476562 L 970.160156 14.734375 L 971.164062 14.734375 C 971.996094 14.734375 972.671875 14.058594 972.671875 13.230469 C 972.671875 12.398438 971.996094 11.726562 971.164062 11.726562 Z M 971.164062 11.726562 " fill-opacity="1" fill-rule="nonzero"/></g><g clip-path="url(#f73e4fc4cb)"><path fill="#545454" d="M 1012.695312 40.488281 C 999.195312 30.679688 985.691406 50.292969 972.1875 40.488281 C 972.1875 32.316406 972.1875 24.144531 972.1875 15.972656 C 985.691406 25.777344 999.195312 6.164062 1012.695312 15.972656 C 1012.695312 24.144531 1012.695312 32.316406 1012.695312 40.488281 Z M 1012.695312 40.488281 " fill-opacity="1" fill-rule="nonzero"/></g></svg>