<svg xmlns="http://www.w3.org/2000/svg" xmlns:xlink="http://www.w3.org/1999/xlink" width="400" zoomAndPan="magnify" viewBox="0 0 300 299.999988" height="400" preserveAspectRatio="xMidYMid meet" version="1.0"><defs><filter x="0%" y="0%" width="100%" height="100%" id="1b47ec8990"><feColorMatrix values="0 0 0 0 1 0 0 0 0 1 0 0 0 0 1 0 0 0 1 0" color-interpolation-filters="sRGB"/></filter><clipPath id="0c1526ee79"><path d="M 168 3.585938 L 187 3.585938 L 187 29 L 168 29 Z M 168 3.585938 " clip-rule="nonzero"/></clipPath><mask id="6d50253f2e"><g filter="url(#1b47ec8990)"><rect x="-30" width="360" fill="#000000" y="-29.999999" height="359.999986" fill-opacity="0.098"/></g></mask><clipPath id="88892c98c7"><path d="M 0.761719 0.28125 L 20.921875 0.28125 L 20.921875 19 L 0.761719 19 Z M 0.761719 0.28125 " clip-rule="nonzero"/></clipPath><clipPath id="2f2447b808"><rect x="0" width="21" y="0" height="19"/></clipPath></defs><path fill="#fc947e" d="M 196.101562 234.574219 L 211.671875 246.128906 C 211.671875 246.128906 216.785156 261.910156 208.1875 261.316406 L 204.035156 254.058594 C 203.144531 252.5 201.808594 251.316406 200.328125 250.722656 L 188.167969 245.90625 Z M 196.101562 234.574219 " fill-opacity="1" fill-rule="nonzero"/><path fill="#fc947e" d="M 250.964844 247.761719 L 265.273438 262.207031 C 265.273438 262.207031 265.199219 271.691406 256.820312 269.320312 L 243.03125 257.6875 Z M 250.964844 247.761719 " fill-opacity="1" fill-rule="nonzero"/><path fill="#004aad" d="M 187.128906 144.484375 C 187.128906 144.484375 175.492188 175.972656 168.003906 201.605469 C 160.515625 227.238281 161.328125 234.351562 161.328125 234.351562 C 161.328125 234.351562 165.332031 241.832031 168.371094 243.316406 C 171.488281 244.796875 193.949219 255.316406 193.949219 255.316406 C 193.949219 255.316406 203.960938 248.574219 200.996094 237.019531 L 189.503906 224.128906 L 203.515625 187.605469 C 203.515625 187.605469 209.371094 227.238281 215.96875 238.054688 C 219.234375 243.464844 245.105469 268.875 245.105469 268.875 C 245.105469 268.875 254.96875 263.242188 255.859375 259.984375 C 256.746094 256.722656 257.414062 253.316406 257.414062 253.316406 C 257.414062 253.316406 238.285156 233.609375 237.839844 227.164062 C 237.398438 220.71875 238.285156 166.785156 232.503906 162.042969 C 216.488281 148.785156 214.265625 148.414062 214.265625 148.414062 Z M 187.128906 144.484375 " fill-opacity="1" fill-rule="nonzero"/><path fill="#fc947e" d="M 269.351562 172.859375 C 269.351562 172.859375 269.5 179.453125 270.464844 182.9375 C 271.5 186.417969 272.019531 190.714844 271.054688 193.160156 C 270.019531 195.605469 268.609375 200.421875 266.386719 200.640625 C 266.386719 200.640625 265.792969 200.789062 265.570312 200.640625 C 265.347656 200.496094 263.125 202.496094 260.527344 201.011719 C 258.75 199.902344 260.15625 195.753906 259.710938 193.753906 C 259.710938 193.753906 257.710938 195.976562 256.671875 193.753906 C 256.671875 193.753906 257.191406 187.675781 256.894531 185.972656 C 256.449219 183.675781 260.824219 181.972656 261.195312 176.046875 C 261.566406 169.972656 269.351562 172.859375 269.351562 172.859375 Z M 269.351562 172.859375 " fill-opacity="1" fill-rule="nonzero"/><path fill="#f1f1f1" d="M 258.675781 171.75 L 258.230469 177.972656 C 258.230469 177.972656 269.796875 177.898438 271.648438 175.304688 C 271.648438 175.304688 272.09375 170.5625 271.796875 169.75 C 271.351562 168.195312 258.675781 171.75 258.675781 171.75 Z M 258.675781 171.75 " fill-opacity="1" fill-rule="nonzero"/><g clip-path="url(#0c1526ee79)"><path fill="#fc947e" d="M 177.863281 26.691406 C 177.863281 26.691406 176.675781 19.726562 178.160156 18.617188 C 178.160156 18.617188 185.945312 16.097656 186.242188 12.171875 C 186.535156 8.246094 186.535156 9.132812 186.242188 7.355469 C 185.945312 5.578125 184.683594 4.6875 184.089844 4.242188 C 183.570312 3.800781 180.457031 3.875 179.863281 3.949219 C 178.457031 4.097656 178.605469 3.875 177.9375 4.097656 C 177.492188 4.242188 177.566406 4.171875 177.121094 3.949219 C 176.675781 3.726562 175.34375 3.875 174.75 4.171875 C 174.304688 4.390625 174.378906 4.539062 174.378906 4.539062 C 174.378906 4.539062 172.820312 4.390625 172.152344 5.207031 C 171.488281 6.023438 171.488281 8.761719 171.117188 9.28125 C 170.746094 9.652344 170.078125 10.542969 170.078125 13.207031 C 170.078125 15.875 170.449219 15.578125 169.929688 17.207031 C 169.410156 18.839844 168.371094 26.914062 168.59375 28.988281 Z M 177.863281 26.691406 " fill-opacity="1" fill-rule="nonzero"/></g><path fill="#f1f1f1" d="M 181.71875 29.0625 L 180.085938 21.359375 L 162.960938 28.839844 L 164.738281 36.765625 Z M 181.71875 29.0625 " fill-opacity="1" fill-rule="nonzero"/><path fill="#fc947e" d="M 225.164062 69.734375 C 225.164062 69.734375 221.679688 86.328125 222.644531 90.183594 C 222.644531 90.183594 215.304688 100.777344 203.960938 96.480469 C 192.617188 92.109375 197.65625 86.476562 197.65625 86.476562 C 197.65625 86.476562 207.148438 82.328125 206.480469 78.550781 C 205.8125 74.773438 225.164062 69.734375 225.164062 69.734375 Z M 225.164062 69.734375 " fill-opacity="1" fill-rule="nonzero"/><path fill="#fc947e" d="M 228.648438 67.585938 C 227.757812 71.734375 226.648438 72.402344 223.828125 75.292969 C 223.160156 75.957031 222.421875 76.773438 221.53125 77.808594 C 217.082031 83.070312 212.929688 84.550781 208.410156 83.21875 C 204.183594 81.957031 204.921875 80.476562 204.332031 77.144531 C 204.257812 76.847656 204.257812 76.625 204.183594 76.328125 C 204.183594 76.179688 204.109375 76.03125 204.109375 75.882812 C 203.515625 72.476562 205.21875 68.03125 206.183594 65.511719 C 206.332031 65.214844 206.40625 64.917969 206.480469 64.625 C 207.296875 62.328125 208.1875 59.585938 208.1875 59.585938 C 208.925781 54.25 214.191406 55.882812 219.601562 56.472656 C 224.941406 57.140625 229.761719 62.402344 228.648438 67.585938 Z M 228.648438 67.585938 " fill-opacity="1" fill-rule="nonzero"/><g mask="url(#6d50253f2e)"><g transform="matrix(1, 0, 0, 1, 203, 65)"><g clip-path="url(#2f2447b808)"><g clip-path="url(#88892c98c7)"><path fill="#000000" d="M 19.421875 8.808594 C 18.53125 9.699219 14.378906 14.21875 13.339844 13.921875 C 12.378906 13.625 11.933594 8.289062 5.335938 8.289062 C 4.890625 8.289062 3.851562 8.957031 2.8125 9.699219 C 2.589844 9.847656 2.292969 9.773438 2.21875 9.476562 C 1.996094 8.585938 1.480469 7.699219 1.996094 5.253906 C 2.367188 3.625 3.257812 1.328125 3.183594 0.585938 C 2.21875 3.105469 0.515625 7.476562 1.109375 10.957031 C 1.109375 11.105469 1.183594 11.253906 1.183594 11.402344 C 1.257812 11.699219 1.332031 11.921875 1.332031 12.144531 C 1.996094 15.550781 1.183594 17.03125 5.480469 18.292969 C 10.078125 19.625 14.15625 18.144531 18.605469 12.882812 C 19.496094 11.847656 20.308594 10.292969 20.382812 8.957031 C 20.160156 8.4375 21.273438 8.289062 19.421875 8.808594 Z M 19.421875 8.808594 " fill-opacity="1" fill-rule="nonzero"/></g></g></g></g><path fill="#000000" d="M 206.40625 64.625 C 206.628906 64.105469 208.925781 58.621094 211.449219 57.363281 C 211.449219 57.363281 216.117188 61.734375 219.675781 61.140625 C 219.675781 61.140625 221.308594 63.511719 223.53125 64.476562 L 222.792969 67.140625 L 223.679688 69.957031 L 222.347656 73.808594 C 222.347656 73.808594 225.386719 73.511719 226.574219 72.253906 C 230.648438 67.957031 231.835938 64.105469 229.761719 59.957031 C 229.019531 58.546875 227.90625 56.027344 226.425781 54.769531 C 223.902344 52.695312 221.457031 52.992188 218.046875 51.660156 C 218.046875 51.660156 216.636719 50.027344 213.820312 51.804688 C 212.707031 52.546875 209.371094 53.289062 209 54.917969 C 208.851562 55.4375 208.113281 55.957031 207.816406 56.398438 C 207.296875 57.140625 207.816406 58.84375 207.148438 59.066406 C 206.332031 59.511719 206.40625 64.625 206.40625 64.625 Z M 206.40625 64.625 " fill-opacity="1" fill-rule="nonzero"/><path fill="#000000" d="M 211.152344 65.808594 C 211.003906 65.808594 210.855469 65.734375 210.707031 65.660156 C 209.816406 65.066406 208.777344 64.695312 207.964844 64.476562 C 207.59375 64.328125 207.371094 63.957031 207.445312 63.585938 C 207.59375 63.214844 207.964844 62.992188 208.335938 63.066406 C 209.296875 63.363281 210.484375 63.734375 211.523438 64.402344 C 211.894531 64.625 211.96875 65.066406 211.746094 65.4375 C 211.671875 65.734375 211.449219 65.808594 211.152344 65.808594 Z M 211.152344 65.808594 " fill-opacity="1" fill-rule="nonzero"/><path fill="#000000" d="M 220.121094 68.773438 C 219.972656 68.773438 219.75 68.699219 219.601562 68.550781 C 218.34375 67.4375 217.15625 67.140625 215.378906 66.84375 C 215.007812 66.773438 214.710938 66.402344 214.785156 65.957031 C 214.859375 65.585938 215.230469 65.289062 215.675781 65.363281 C 217.601562 65.660156 219.085938 66.03125 220.640625 67.363281 C 220.9375 67.660156 220.9375 68.105469 220.714844 68.402344 C 220.566406 68.699219 220.34375 68.773438 220.121094 68.773438 Z M 220.121094 68.773438 " fill-opacity="1" fill-rule="nonzero"/><path fill="#000000" d="M 207.59375 67.808594 C 207.59375 67.140625 208.039062 66.03125 208.628906 65.808594 C 208.925781 65.734375 209.148438 65.808594 209.222656 66.179688 C 209.445312 67.289062 208.777344 68.179688 208.261719 68.402344 C 207.964844 68.625 207.667969 68.402344 207.59375 68.179688 C 207.59375 68.105469 207.59375 67.957031 207.59375 67.808594 Z M 207.59375 67.808594 " fill-opacity="1" fill-rule="nonzero"/><path fill="#000000" d="M 215.304688 70.328125 C 215.304688 69.660156 215.820312 68.550781 216.339844 68.402344 C 216.636719 68.328125 216.859375 68.402344 216.933594 68.773438 C 217.15625 69.957031 216.414062 70.699219 215.894531 70.996094 C 215.601562 71.140625 215.304688 70.921875 215.230469 70.699219 C 215.304688 70.625 215.304688 70.476562 215.304688 70.328125 Z M 215.304688 70.328125 " fill-opacity="1" fill-rule="nonzero"/><path fill="#000000" d="M 210.113281 73.734375 C 210.039062 73.734375 209.890625 73.660156 209.816406 73.585938 C 209.222656 72.847656 208.925781 72.105469 208.925781 71.4375 C 208.925781 69.957031 209.964844 68.550781 210.855469 67.363281 C 211.078125 67.066406 211.375 66.699219 211.597656 66.402344 C 211.746094 66.253906 211.96875 66.179688 212.117188 66.328125 C 212.261719 66.476562 212.335938 66.699219 212.1875 66.84375 C 211.96875 67.140625 211.746094 67.511719 211.449219 67.808594 C 210.632812 68.921875 209.667969 70.179688 209.667969 71.4375 C 209.667969 71.957031 209.890625 72.550781 210.410156 73.144531 C 210.558594 73.289062 210.484375 73.511719 210.335938 73.660156 C 210.335938 73.734375 210.1875 73.734375 210.113281 73.734375 Z M 210.113281 73.734375 " fill-opacity="1" fill-rule="nonzero"/><path fill="#f1f1f1" d="M 207.667969 74.847656 C 208.335938 75.21875 208.480469 75.660156 211.96875 76.105469 L 211.96875 76.179688 C 211.96875 77.21875 210.707031 77.808594 209.667969 77.808594 C 208.261719 77.808594 207.59375 76.550781 207.59375 75.292969 C 207.667969 75.144531 207.667969 74.996094 207.667969 74.847656 Z M 207.667969 74.847656 " fill-opacity="1" fill-rule="nonzero"/><path fill="#fc947e" d="M 224.570312 71.585938 C 225.164062 71.289062 225.90625 71.660156 227.089844 71.808594 C 228.054688 71.882812 228.277344 72.402344 228.277344 73.21875 C 228.277344 74.847656 224.496094 79.21875 222.644531 77.367188 C 222.050781 76.699219 223.679688 71.957031 224.570312 71.585938 Z M 224.570312 71.585938 " fill-opacity="1" fill-rule="nonzero"/><path fill="#f1f1f1" d="M 226.867188 89.515625 L 225.535156 82.328125 L 215.15625 89.515625 L 208.261719 98.777344 L 208.261719 89.8125 L 201.070312 80.996094 L 196.84375 86.035156 L 199.363281 99.21875 C 199.363281 99.21875 192.988281 120.851562 187.203125 127.742188 C 181.421875 134.632812 182.976562 156.636719 182.976562 156.636719 C 182.976562 156.636719 196.324219 160.710938 196.769531 160.5625 C 197.214844 160.414062 198.769531 149.375 198.769531 149.375 L 199.4375 161.746094 L 214.117188 163.378906 Z M 226.867188 89.515625 " fill-opacity="1" fill-rule="nonzero"/><path fill="#000000" d="M 201.511719 98.183594 C 201.363281 98.183594 201.289062 98.183594 201.144531 98.109375 C 200.773438 97.886719 200.625 97.441406 200.847656 97.070312 C 202.253906 94.480469 204.257812 92.109375 207.074219 89.8125 C 207.371094 89.515625 207.890625 89.589844 208.113281 89.886719 C 208.410156 90.183594 208.335938 90.699219 208.039062 90.921875 C 205.367188 93.070312 203.441406 95.367188 202.105469 97.738281 C 202.03125 98.109375 201.808594 98.183594 201.511719 98.183594 Z M 201.511719 98.183594 " fill-opacity="1" fill-rule="nonzero"/><path fill="#000000" d="M 217.304688 99.21875 C 216.933594 99.21875 216.636719 99 216.5625 98.628906 C 216.117188 95.886719 215.304688 93.515625 214.636719 91.441406 C 214.488281 91.070312 214.710938 90.625 215.082031 90.480469 C 215.453125 90.332031 215.894531 90.550781 216.042969 90.921875 C 216.710938 92.996094 217.527344 95.441406 217.972656 98.257812 C 218.046875 98.628906 217.75 99.074219 217.378906 99.148438 C 217.453125 99.21875 217.378906 99.21875 217.304688 99.21875 Z M 217.304688 99.21875 " fill-opacity="1" fill-rule="nonzero"/><path fill="#004aad" d="M 228.945312 86.402344 C 228.945312 86.402344 218.121094 92.847656 209.445312 109.890625 C 200.773438 126.929688 206.554688 169.527344 206.554688 169.527344 C 206.554688 169.527344 246.589844 175.15625 249.480469 169.527344 C 249.480469 169.527344 235.765625 153.671875 235.765625 143.746094 C 235.765625 143.746094 240.066406 132.410156 240.660156 124.558594 C 240.660156 124.558594 256.078125 140.558594 257.636719 149.152344 C 259.195312 157.746094 257.636719 173.378906 257.636719 173.378906 C 257.636719 173.378906 271.945312 175.15625 273.503906 169.675781 C 273.503906 169.675781 276.023438 151.523438 273.503906 138.632812 C 273.503906 138.632812 264.902344 112.257812 248.445312 99.738281 C 231.984375 87.21875 228.945312 86.402344 228.945312 86.402344 Z M 228.945312 86.402344 " fill-opacity="1" fill-rule="nonzero"/><path fill="#004aad" d="M 181.125 26.246094 L 162.886719 35.136719 C 162.886719 35.136719 167.707031 60.253906 170.671875 69.066406 C 173.636719 77.957031 176.527344 97.292969 174.453125 105.738281 C 172.375 114.261719 141.90625 161.15625 141.90625 161.15625 L 161.105469 170.859375 L 168.890625 160.859375 L 180.308594 163.378906 L 185.574219 137.152344 C 185.574219 137.152344 205.886719 108.703125 199.660156 82.625 C 199.660156 82.625 198.621094 83.070312 195.582031 79.367188 C 192.542969 75.660156 191.058594 69.066406 187.203125 53.289062 C 184.238281 40.84375 181.125 26.246094 181.125 26.246094 Z M 181.125 26.246094 " fill-opacity="1" fill-rule="nonzero"/><path fill="#000000" d="M 169.410156 159.453125 C 169.1875 159.453125 169.039062 159.378906 168.890625 159.230469 C 168.59375 158.933594 168.59375 158.488281 168.890625 158.191406 C 177.789062 149.820312 188.613281 123.890625 193.210938 108.851562 L 192.765625 101.738281 C 192.765625 101.515625 192.839844 101.296875 192.988281 101.148438 L 196.472656 98.109375 C 195.804688 97.070312 193.949219 94.777344 193.65625 94.40625 C 193.507812 94.257812 193.433594 94.035156 193.433594 93.886719 L 193.433594 93.8125 C 193.433594 93.664062 193.507812 93.515625 193.582031 93.367188 C 193.875 92.921875 194.839844 89.664062 195.433594 87.589844 C 195.953125 85.960938 196.398438 84.328125 196.695312 83.367188 C 196.84375 82.996094 197.214844 82.773438 197.65625 82.921875 C 198.027344 83.070312 198.25 83.441406 198.101562 83.886719 C 197.804688 84.847656 197.289062 86.402344 196.84375 88.035156 C 195.953125 91.070312 195.433594 92.921875 194.988281 93.8125 C 195.285156 94.183594 195.65625 94.703125 196.25 95.515625 C 197.878906 97.664062 198.027344 98.035156 198.027344 98.183594 C 198.101562 98.480469 198.027344 98.777344 197.804688 99 L 194.171875 102.183594 L 194.617188 109.074219 C 194.617188 109.148438 194.617188 109.222656 194.617188 109.296875 C 189.949219 124.929688 179.125 150.785156 169.855469 159.378906 C 169.78125 159.453125 169.632812 159.453125 169.410156 159.453125 Z M 169.410156 159.453125 " fill-opacity="1" fill-rule="nonzero"/><path fill="#000000" d="M 206.257812 125.890625 C 206.183594 125.890625 206.109375 125.890625 206.035156 125.816406 C 205.664062 125.667969 205.441406 125.222656 205.589844 124.855469 C 208.703125 116.039062 213.96875 111.59375 216.191406 109.667969 C 216.488281 109.445312 216.785156 109.148438 216.933594 109 C 216.636719 107.960938 215.820312 105 215.746094 104.109375 C 215.746094 103.738281 215.96875 103.445312 216.265625 103.371094 C 218.714844 102.777344 222.71875 101.222656 223.753906 100.851562 C 223.753906 100.703125 223.828125 100.554688 223.828125 100.40625 C 224.050781 99 224.570312 95.664062 228.425781 88.773438 C 228.648438 88.402344 229.09375 88.332031 229.464844 88.476562 C 229.835938 88.699219 229.910156 89.144531 229.761719 89.515625 C 225.980469 96.183594 225.535156 99.292969 225.3125 100.628906 C 225.238281 101.222656 225.164062 101.664062 224.792969 102.035156 C 224.71875 102.109375 224.644531 102.109375 224.570312 102.183594 C 224.347656 102.257812 220.195312 103.886719 217.304688 104.703125 C 217.527344 105.8125 218.046875 107.742188 218.417969 109.074219 C 218.417969 109.148438 218.417969 109.222656 218.417969 109.296875 C 218.417969 109.816406 218.046875 110.109375 217.082031 110.925781 C 214.933594 112.777344 209.890625 117 206.925781 125.445312 C 206.851562 125.742188 206.628906 125.890625 206.257812 125.890625 Z M 223.828125 101 Z M 223.828125 101 " fill-opacity="1" fill-rule="nonzero"/><path fill="#000000" d="M 198.695312 150.117188 C 198.25 150.117188 197.953125 149.746094 197.953125 149.375 C 198.398438 135.523438 200.105469 110.480469 206.925781 98.777344 C 207.148438 98.40625 207.59375 98.332031 207.964844 98.480469 C 208.335938 98.703125 208.410156 99.148438 208.261719 99.515625 C 201.585938 110.925781 199.882812 135.671875 199.4375 149.375 C 199.4375 149.820312 199.140625 150.117188 198.695312 150.117188 Z M 198.695312 150.117188 " fill-opacity="1" fill-rule="nonzero"/><path fill="#000000" d="M 183.125 12.246094 C 182.832031 12.171875 182.757812 12.023438 182.757812 11.800781 C 182.832031 11.355469 182.902344 10.984375 182.902344 10.691406 C 182.902344 9.726562 182.535156 9.28125 182.089844 8.835938 C 181.71875 8.46875 181.347656 8.023438 181.347656 7.28125 C 181.347656 6.023438 181.941406 5.28125 182.976562 5.28125 L 183.421875 5.28125 C 184.386719 5.355469 184.757812 5.875 185.128906 6.320312 C 185.351562 6.613281 185.648438 6.984375 186.09375 7.207031 C 186.242188 7.28125 186.316406 7.503906 186.242188 7.726562 C 186.167969 7.875 185.945312 7.949219 185.722656 7.875 C 185.128906 7.578125 184.757812 7.132812 184.460938 6.761719 C 184.089844 6.320312 183.867188 6.023438 183.273438 6.023438 L 182.902344 6.023438 C 182.683594 6.023438 182.015625 6.023438 182.015625 7.28125 C 182.015625 7.800781 182.238281 8.023438 182.609375 8.394531 C 183.050781 8.835938 183.570312 9.429688 183.570312 10.691406 C 183.570312 11.132812 183.496094 11.578125 183.421875 11.949219 C 183.496094 12.171875 183.347656 12.246094 183.125 12.246094 Z M 183.125 12.246094 " fill-opacity="1" fill-rule="nonzero"/><path fill="#000000" d="M 180.160156 12.097656 C 179.640625 12.097656 179.269531 11.949219 178.976562 11.726562 C 178.53125 11.28125 178.605469 10.617188 178.605469 10.394531 C 178.902344 8.46875 179.492188 6.171875 179.789062 4.984375 L 179.863281 4.539062 C 179.9375 4.316406 180.085938 4.242188 180.308594 4.242188 C 180.53125 4.316406 180.605469 4.464844 180.605469 4.6875 L 180.457031 5.132812 C 180.160156 6.246094 179.566406 8.613281 179.34375 10.46875 C 179.269531 10.984375 179.417969 11.132812 179.417969 11.132812 C 179.566406 11.28125 180.085938 11.429688 181.570312 11.058594 C 181.792969 10.984375 181.941406 11.132812 182.015625 11.355469 C 182.089844 11.578125 181.941406 11.726562 181.71875 11.800781 C 181.125 12.023438 180.53125 12.097656 180.160156 12.097656 Z M 180.160156 12.097656 " fill-opacity="1" fill-rule="nonzero"/><path fill="#000000" d="M 177.789062 12.023438 C 177.269531 12.023438 176.75 11.949219 176.453125 11.652344 C 176.15625 11.429688 176.007812 10.984375 176.007812 10.542969 C 176.007812 9.355469 176.675781 6.320312 177.195312 4.6875 C 177.269531 4.464844 177.492188 4.390625 177.640625 4.464844 C 177.863281 4.539062 177.9375 4.761719 177.863281 4.910156 C 177.34375 6.6875 176.675781 9.578125 176.675781 10.617188 C 176.675781 10.984375 176.824219 11.132812 176.898438 11.207031 C 177.269531 11.503906 178.160156 11.429688 178.828125 11.28125 C 179.050781 11.28125 179.199219 11.355469 179.269531 11.578125 C 179.269531 11.800781 179.199219 11.949219 178.976562 12.023438 C 178.53125 11.949219 178.085938 12.023438 177.789062 12.023438 Z M 177.789062 12.023438 " fill-opacity="1" fill-rule="nonzero"/><path fill="#000000" d="M 175.785156 11.652344 C 175.785156 11.652344 175.710938 11.652344 175.710938 11.652344 C 173.785156 11.207031 173.339844 10.320312 173.339844 9.578125 C 173.339844 9.578125 173.414062 6.761719 174.007812 4.761719 C 174.082031 4.539062 174.304688 4.464844 174.453125 4.539062 C 174.675781 4.613281 174.75 4.835938 174.675781 4.984375 C 174.082031 6.835938 174.007812 9.503906 174.007812 9.503906 C 174.007812 10.171875 174.601562 10.617188 175.785156 10.835938 C 176.007812 10.910156 176.082031 11.058594 176.082031 11.28125 C 176.15625 11.578125 176.007812 11.652344 175.785156 11.652344 Z M 175.785156 11.652344 " fill-opacity="1" fill-rule="nonzero"/><path fill="#000000" d="M 172.820312 10.394531 C 172.746094 10.394531 172.746094 10.394531 172.671875 10.394531 C 171.785156 10.023438 171.710938 9.800781 171.710938 8.910156 C 171.710938 8.835938 171.710938 8.6875 171.710938 8.539062 C 171.710938 8.171875 171.710938 7.875 171.785156 7.503906 C 171.785156 7.207031 171.785156 6.910156 171.785156 6.613281 C 171.785156 6.390625 171.933594 6.246094 172.152344 6.246094 C 172.375 6.246094 172.523438 6.390625 172.523438 6.613281 C 172.523438 6.910156 172.523438 7.207031 172.523438 7.578125 C 172.523438 7.875 172.449219 8.246094 172.449219 8.539062 C 172.449219 8.6875 172.449219 8.835938 172.449219 8.910156 C 172.449219 9.429688 172.449219 9.429688 172.96875 9.652344 C 173.191406 9.726562 173.265625 9.949219 173.191406 10.171875 C 173.117188 10.320312 172.96875 10.394531 172.820312 10.394531 Z M 172.820312 10.394531 " fill-opacity="1" fill-rule="nonzero"/><path fill="#000000" d="M 260.082031 193.457031 C 260.082031 193.457031 260.007812 193.457031 260.007812 193.457031 C 259.785156 193.382812 259.710938 193.234375 259.710938 193.011719 C 259.933594 192.046875 260.007812 191.160156 260.007812 190.046875 C 260.007812 188.9375 259.933594 187.898438 259.785156 186.714844 C 259.785156 186.492188 259.933594 186.34375 260.082031 186.269531 C 260.304688 186.269531 260.453125 186.417969 260.527344 186.566406 C 260.675781 187.75 260.75 188.9375 260.75 190.046875 C 260.75 191.234375 260.675781 192.195312 260.453125 193.160156 C 260.453125 193.382812 260.304688 193.457031 260.082031 193.457031 Z M 260.082031 193.457031 " fill-opacity="1" fill-rule="nonzero"/><path fill="#000000" d="M 261.492188 201.011719 C 261.417969 201.011719 261.417969 201.011719 261.34375 201.011719 C 261.121094 200.9375 261.046875 200.714844 261.121094 200.570312 C 262.234375 197.679688 262.679688 195.679688 262.679688 192.863281 C 262.679688 192.640625 262.828125 192.492188 263.050781 192.492188 C 263.269531 192.492188 263.417969 192.640625 263.417969 192.863281 C 263.417969 195.828125 262.976562 197.902344 261.863281 200.863281 C 261.789062 200.9375 261.640625 201.011719 261.492188 201.011719 Z M 261.492188 201.011719 " fill-opacity="1" fill-rule="nonzero"/><path fill="#000000" d="M 263.640625 201.160156 C 263.566406 201.160156 263.566406 201.160156 263.492188 201.160156 C 263.269531 201.085938 263.199219 200.863281 263.269531 200.640625 C 264.308594 198.199219 264.753906 195.457031 265.199219 192.863281 L 265.941406 193.011719 C 265.496094 195.679688 265.050781 198.347656 264.011719 200.9375 C 263.9375 201.085938 263.789062 201.160156 263.640625 201.160156 Z M 263.640625 201.160156 " fill-opacity="1" fill-rule="nonzero"/><path fill="#000000" d="M 265.941406 200.421875 C 265.867188 200.421875 265.867188 200.421875 265.792969 200.421875 C 265.570312 200.347656 265.496094 200.125 265.570312 199.902344 L 265.867188 199.308594 C 266.683594 197.53125 267.71875 195.160156 267.71875 193.382812 C 267.71875 193.160156 267.867188 193.011719 268.089844 193.011719 C 268.3125 193.011719 268.460938 193.160156 268.460938 193.382812 C 268.460938 195.308594 267.347656 197.753906 266.535156 199.605469 L 266.238281 200.199219 C 266.238281 200.347656 266.089844 200.421875 265.941406 200.421875 Z M 265.941406 200.421875 " fill-opacity="1" fill-rule="nonzero"/><path fill="#000000" d="M 202.847656 184.492188 C 202.625 184.492188 202.402344 184.417969 202.253906 184.195312 C 199.511719 180.566406 199.140625 176.714844 199.140625 173.824219 C 199.140625 172.269531 199.289062 170.710938 199.363281 169.007812 C 199.511719 167.601562 199.585938 166.117188 199.660156 164.636719 C 199.660156 164.191406 200.03125 163.898438 200.402344 163.898438 C 200.847656 163.898438 201.144531 164.265625 201.144531 164.636719 C 201.144531 166.117188 200.996094 167.601562 200.847656 169.082031 C 200.699219 170.710938 200.625 172.269531 200.625 173.75 C 200.625 177.75 201.511719 180.640625 203.441406 183.234375 C 203.664062 183.527344 203.589844 184.046875 203.292969 184.269531 C 203.21875 184.492188 202.996094 184.492188 202.847656 184.492188 Z M 202.847656 184.492188 " fill-opacity="1" fill-rule="nonzero"/><path fill="#000000" d="M 180.53125 234.054688 C 180.234375 234.054688 180.011719 233.90625 179.863281 233.609375 C 179.714844 233.238281 179.863281 232.796875 180.234375 232.648438 C 183.867188 230.941406 186.683594 228.054688 188.539062 223.90625 C 188.6875 223.535156 189.132812 223.386719 189.503906 223.535156 C 189.875 223.683594 190.023438 224.128906 189.875 224.496094 C 187.871094 228.941406 184.757812 232.128906 180.828125 233.980469 C 180.753906 234.054688 180.679688 234.054688 180.53125 234.054688 Z M 180.53125 234.054688 " fill-opacity="1" fill-rule="nonzero"/><path fill="#000000" d="M 182.609375 85.738281 C 182.386719 85.738281 182.238281 85.664062 182.089844 85.515625 C 181.792969 85.21875 181.867188 84.773438 182.164062 84.476562 C 185.722656 81.292969 189.429688 79.882812 194.914062 79.589844 C 195.285156 79.589844 195.65625 79.882812 195.65625 80.328125 C 195.65625 80.773438 195.359375 81.070312 194.914062 81.070312 C 189.726562 81.292969 186.390625 82.550781 183.050781 85.515625 C 182.976562 85.738281 182.832031 85.738281 182.609375 85.738281 Z M 182.609375 85.738281 " fill-opacity="1" fill-rule="nonzero"/><path fill="#000000" d="M 237.621094 123.074219 C 237.324219 123.074219 237.027344 122.925781 236.953125 122.632812 C 234.949219 117.445312 234.726562 112.332031 234.429688 106.851562 C 234.355469 105.8125 234.355469 104.703125 234.28125 103.664062 C 234.28125 103.222656 234.578125 102.925781 234.949219 102.851562 C 235.320312 102.851562 235.691406 103.148438 235.765625 103.515625 C 235.839844 104.628906 235.839844 105.664062 235.914062 106.777344 C 236.136719 112.109375 236.359375 117.148438 238.285156 122.039062 C 238.433594 122.410156 238.210938 122.855469 237.839844 123 C 237.839844 123.074219 237.765625 123.074219 237.621094 123.074219 Z M 237.621094 123.074219 " fill-opacity="1" fill-rule="nonzero"/><path fill="#004aad" d="M 217.898438 284.433594 C 219.824219 285.171875 222.125 271.46875 222.421875 269.320312 C 223.234375 262.28125 222.273438 259.464844 220.566406 255.835938 C 221.234375 255.09375 222.273438 252.796875 222.273438 252.796875 C 222.421875 251.6875 221.753906 246.722656 221.753906 246.054688 C 221.085938 245.6875 220.269531 245.167969 219.453125 244.871094 C 218.714844 244.574219 218.046875 244.425781 217.453125 244.648438 C 216.710938 243.832031 215.96875 243.316406 215.15625 243.019531 C 212.707031 242.054688 210.113281 243.019531 207.667969 242.054688 C 207.519531 241.980469 207.371094 241.90625 207.148438 241.832031 C 206.925781 241.757812 206.777344 241.757812 206.628906 241.980469 C 205.960938 243.019531 207.59375 242.054688 206.703125 248.648438 C 206.332031 251.242188 204.773438 253.167969 204.773438 254.945312 L 204.773438 255.019531 C 204.773438 255.464844 204.921875 255.910156 205.144531 256.355469 C 206.109375 258.058594 207.148438 259.910156 208.261719 261.390625 C 218.195312 274.578125 210.410156 281.542969 217.898438 284.433594 Z M 217.898438 284.433594 " fill-opacity="1" fill-rule="nonzero"/><path fill="#000000" d="M 215.894531 265.097656 C 215.820312 265.097656 215.75 265.097656 215.601562 265.023438 C 214.636719 264.503906 213.820312 263.6875 213.003906 262.875 C 212.632812 262.503906 212.1875 262.058594 211.820312 261.6875 C 211.375 261.316406 210.78125 260.875 210.113281 260.429688 C 208.113281 259.019531 205.664062 257.242188 205.664062 255.019531 L 205.664062 254.796875 C 205.738281 254.355469 205.8125 253.910156 205.886719 253.539062 C 205.960938 253.242188 206.035156 252.871094 206.035156 252.722656 C 206.035156 252.425781 206.257812 252.207031 206.554688 252.207031 C 206.851562 252.207031 207.074219 252.425781 207.074219 252.722656 C 207.074219 253.019531 207 253.390625 206.925781 253.761719 C 206.851562 254.132812 206.777344 254.503906 206.703125 254.796875 L 206.703125 254.945312 C 206.703125 256.652344 208.925781 258.207031 210.632812 259.464844 C 211.300781 259.910156 211.894531 260.355469 212.410156 260.800781 C 212.855469 261.167969 213.226562 261.613281 213.671875 261.984375 C 214.488281 262.800781 215.230469 263.539062 216.042969 263.984375 C 216.339844 264.132812 216.414062 264.429688 216.265625 264.726562 C 216.265625 264.949219 216.117188 265.097656 215.894531 265.097656 Z M 215.894531 265.097656 " fill-opacity="1" fill-rule="nonzero"/><path fill="#000000" d="M 215.820312 265.097656 C 215.75 265.097656 215.675781 265.097656 215.527344 265.023438 C 215.230469 264.875 215.15625 264.578125 215.304688 264.28125 C 215.820312 263.316406 216.191406 262.132812 216.5625 260.949219 C 217.007812 259.539062 217.453125 258.058594 218.195312 256.945312 C 218.34375 256.722656 218.714844 256.652344 218.9375 256.796875 C 219.160156 256.945312 219.234375 257.316406 219.085938 257.539062 C 218.34375 258.578125 217.972656 259.835938 217.601562 261.242188 C 217.230469 262.429688 216.859375 263.6875 216.265625 264.800781 C 216.191406 264.949219 216.042969 265.097656 215.820312 265.097656 Z M 215.820312 265.097656 " fill-opacity="1" fill-rule="nonzero"/><path fill="#000000" d="M 217.601562 284.285156 C 217.453125 284.285156 217.304688 284.210938 217.15625 284.0625 C 216.933594 283.839844 217.007812 283.46875 217.230469 283.320312 C 218.714844 282.0625 219.085938 279.023438 220.046875 270.875 L 220.195312 269.6875 C 220.789062 264.503906 220.269531 262.207031 219.527344 259.390625 C 219.234375 258.207031 218.9375 256.871094 218.640625 255.167969 C 218.417969 253.835938 218.34375 252.574219 218.34375 251.390625 C 218.269531 249.390625 218.195312 247.539062 217.304688 245.390625 C 217.15625 245.09375 217.304688 244.796875 217.601562 244.648438 C 217.898438 244.5 218.195312 244.648438 218.34375 244.945312 C 219.308594 247.316406 219.382812 249.242188 219.453125 251.316406 C 219.527344 252.5 219.527344 253.6875 219.75 254.945312 C 220.046875 256.578125 220.34375 257.835938 220.640625 259.019531 C 221.382812 261.835938 221.976562 264.355469 221.308594 269.761719 L 221.160156 270.949219 C 220.121094 279.617188 219.824219 282.578125 217.972656 284.136719 C 217.898438 284.210938 217.75 284.285156 217.601562 284.285156 Z M 217.601562 284.285156 " fill-opacity="1" fill-rule="nonzero"/><path fill="#000000" d="M 211.671875 266.503906 C 211.449219 266.503906 211.226562 266.355469 211.152344 266.132812 C 210.707031 264.726562 209.296875 262.652344 207.964844 260.578125 C 206.183594 257.984375 204.703125 255.6875 204.847656 254.355469 C 204.847656 254.058594 205.144531 253.835938 205.441406 253.835938 C 205.738281 253.835938 205.960938 254.132812 205.960938 254.429688 C 205.886719 255.390625 207.519531 257.835938 208.925781 259.910156 C 210.335938 261.984375 211.820312 264.132812 212.261719 265.761719 C 212.335938 266.058594 212.1875 266.355469 211.894531 266.429688 C 211.820312 266.503906 211.746094 266.503906 211.671875 266.503906 Z M 211.671875 266.503906 " fill-opacity="1" fill-rule="nonzero"/><path fill="#000000" d="M 221.679688 253.167969 C 221.605469 253.167969 221.53125 253.167969 221.457031 253.09375 C 220.9375 252.871094 220.417969 252.648438 219.972656 252.5 C 219.527344 252.351562 219.160156 252.207031 218.863281 252.132812 C 218.566406 252.058594 218.34375 251.761719 218.417969 251.464844 C 218.492188 251.167969 218.789062 250.945312 219.085938 251.019531 C 219.601562 251.09375 220.121094 251.316406 220.34375 251.390625 C 220.863281 251.539062 221.382812 251.761719 221.902344 251.984375 C 222.199219 252.132812 222.273438 252.425781 222.199219 252.722656 C 222.125 253.019531 221.902344 253.167969 221.679688 253.167969 Z M 221.679688 253.167969 " fill-opacity="1" fill-rule="nonzero"/><path fill="#000000" d="M 206.109375 258.726562 C 206.035156 258.726562 205.960938 258.726562 205.886719 258.726562 C 205.589844 258.652344 205.441406 258.28125 205.589844 258.058594 L 205.589844 257.984375 C 206.109375 256.652344 206.40625 255.761719 207.742188 255.09375 C 208.039062 254.945312 208.335938 255.09375 208.480469 255.316406 C 208.628906 255.613281 208.480469 255.910156 208.261719 256.058594 C 207.296875 256.578125 207.148438 257.019531 206.628906 258.355469 L 206.628906 258.429688 C 206.554688 258.578125 206.332031 258.726562 206.109375 258.726562 Z M 206.109375 258.726562 " fill-opacity="1" fill-rule="nonzero"/><path fill="#000000" d="M 207.445312 260.726562 C 207.371094 260.726562 207.371094 260.726562 207.296875 260.726562 C 207 260.652344 206.851562 260.355469 206.925781 260.058594 C 207.371094 258.503906 208.554688 257.613281 209.519531 257.019531 C 209.742188 256.871094 210.113281 256.945312 210.261719 257.167969 C 210.410156 257.390625 210.335938 257.761719 210.113281 257.910156 C 209.296875 258.429688 208.335938 259.167969 207.964844 260.355469 C 207.964844 260.578125 207.742188 260.726562 207.445312 260.726562 Z M 207.445312 260.726562 " fill-opacity="1" fill-rule="nonzero"/><path fill="#000000" d="M 209 263.023438 C 208.925781 263.023438 208.851562 263.023438 208.777344 263.023438 C 208.480469 262.949219 208.335938 262.578125 208.480469 262.355469 C 208.925781 261.09375 210.039062 260.429688 210.929688 259.835938 C 211.152344 259.6875 211.375 259.539062 211.597656 259.390625 C 211.820312 259.242188 212.1875 259.242188 212.335938 259.539062 C 212.484375 259.761719 212.484375 260.132812 212.1875 260.28125 C 211.96875 260.429688 211.671875 260.578125 211.449219 260.800781 C 210.558594 261.316406 209.742188 261.835938 209.445312 262.800781 C 209.445312 262.875 209.222656 263.023438 209 263.023438 Z M 209 263.023438 " fill-opacity="1" fill-rule="nonzero"/><path fill="#004aad" d="M 259.785156 298.65625 C 261.492188 299.695312 267.644531 287.839844 268.535156 285.914062 C 271.351562 279.691406 271.277344 276.949219 270.609375 273.320312 C 271.5 272.800781 273.132812 270.949219 273.132812 270.949219 C 273.578125 269.984375 274.390625 265.316406 274.539062 264.726562 C 274.023438 264.28125 273.355469 263.613281 272.613281 263.167969 C 272.019531 262.800781 271.351562 262.503906 270.757812 262.503906 C 270.242188 261.613281 269.648438 261.019531 268.980469 260.578125 C 266.832031 259.242188 264.011719 259.539062 261.863281 258.132812 C 261.714844 258.058594 261.566406 257.910156 261.417969 257.835938 C 261.269531 257.6875 261.046875 257.6875 260.898438 257.835938 C 260.75 259.242188 259.933594 261.613281 258.898438 263.835938 C 257.859375 266.132812 255.859375 267.613281 255.339844 269.171875 L 255.339844 269.246094 C 255.191406 269.617188 255.191406 270.058594 255.339844 270.503906 C 255.785156 272.28125 256.300781 274.132812 256.96875 275.765625 C 262.902344 289.839844 253.261719 294.507812 259.785156 298.65625 Z M 259.785156 298.65625 " fill-opacity="1" fill-rule="nonzero"/><path fill="#000000" d="M 263.492188 280.800781 C 263.34375 280.800781 263.269531 280.726562 263.125 280.652344 C 262.308594 279.914062 261.714844 279.023438 261.121094 278.0625 C 260.898438 277.617188 260.601562 277.246094 260.304688 276.800781 C 259.933594 276.28125 259.417969 275.765625 258.898438 275.171875 C 257.339844 273.46875 255.5625 271.46875 256.226562 269.542969 C 256.226562 269.46875 256.300781 269.394531 256.300781 269.320312 C 256.300781 269.320312 256.300781 269.246094 256.300781 269.246094 C 256.449219 268.875 256.671875 268.429688 256.894531 268.132812 C 257.042969 267.910156 257.191406 267.613281 257.265625 267.539062 C 257.414062 267.246094 257.710938 267.097656 258.007812 267.246094 C 258.304688 267.394531 258.453125 267.6875 258.304688 267.984375 C 258.230469 268.207031 258.082031 268.429688 257.859375 268.726562 C 257.710938 269.023438 257.488281 269.394531 257.339844 269.6875 C 257.339844 269.761719 257.265625 269.835938 257.265625 269.835938 C 257.265625 269.835938 257.265625 269.910156 257.265625 269.910156 C 256.746094 271.246094 258.378906 273.023438 259.710938 274.503906 C 260.304688 275.097656 260.824219 275.691406 261.195312 276.28125 C 261.492188 276.726562 261.789062 277.097656 262.011719 277.542969 C 262.53125 278.429688 263.050781 279.246094 263.789062 279.839844 C 264.011719 280.0625 264.011719 280.359375 263.863281 280.578125 C 263.789062 280.726562 263.640625 280.800781 263.492188 280.800781 Z M 257.414062 269.617188 Z M 256.375 269.394531 Z M 256.375 269.394531 " fill-opacity="1" fill-rule="nonzero"/><path fill="#000000" d="M 263.492188 280.800781 C 263.34375 280.800781 263.199219 280.726562 263.125 280.652344 C 262.902344 280.429688 262.902344 280.0625 263.125 279.914062 C 263.9375 279.171875 264.605469 278.136719 265.273438 277.171875 C 266.089844 275.988281 266.902344 274.800781 268.015625 273.914062 C 268.238281 273.765625 268.609375 273.765625 268.757812 273.984375 C 268.90625 274.207031 268.90625 274.578125 268.683594 274.726562 C 267.71875 275.46875 266.976562 276.578125 266.164062 277.691406 C 265.496094 278.726562 264.753906 279.765625 263.863281 280.578125 C 263.789062 280.726562 263.640625 280.800781 263.492188 280.800781 Z M 263.492188 280.800781 " fill-opacity="1" fill-rule="nonzero"/><path fill="#000000" d="M 259.785156 298.582031 C 259.566406 298.582031 259.417969 298.433594 259.269531 298.285156 C 259.121094 297.988281 259.269531 297.691406 259.566406 297.546875 C 261.417969 296.730469 262.53125 294.210938 265.941406 286.730469 L 266.3125 285.839844 C 268.386719 281.246094 268.460938 279.097656 268.609375 276.429688 C 268.683594 275.246094 268.683594 273.984375 268.980469 272.355469 C 269.128906 271.097656 269.425781 269.984375 269.722656 268.875 C 270.167969 267.097656 270.683594 265.390625 270.390625 263.242188 C 270.390625 262.949219 270.535156 262.652344 270.832031 262.652344 C 271.128906 262.652344 271.425781 262.800781 271.425781 263.097656 C 271.722656 265.464844 271.277344 267.246094 270.757812 269.171875 C 270.464844 270.207031 270.167969 271.320312 270.019531 272.503906 C 269.796875 274.058594 269.722656 275.246094 269.722656 276.429688 C 269.574219 279.171875 269.5 281.542969 267.347656 286.285156 L 266.976562 287.171875 C 263.417969 294.953125 262.234375 297.546875 260.082031 298.582031 C 259.933594 298.582031 259.859375 298.582031 259.785156 298.582031 Z M 259.785156 298.582031 " fill-opacity="1" fill-rule="nonzero"/><path fill="#000000" d="M 258.898438 281.246094 C 258.601562 281.246094 258.378906 281.023438 258.378906 280.726562 C 258.378906 279.394531 257.5625 277.246094 256.820312 275.097656 C 255.785156 272.28125 254.96875 269.910156 255.488281 268.652344 C 255.636719 268.355469 255.933594 268.28125 256.226562 268.429688 C 256.523438 268.578125 256.597656 268.875 256.449219 269.171875 C 256.078125 269.984375 257.042969 272.578125 257.785156 274.726562 C 258.601562 276.949219 259.417969 279.171875 259.417969 280.726562 C 259.492188 281.023438 259.195312 281.246094 258.898438 281.246094 Z M 258.898438 281.246094 " fill-opacity="1" fill-rule="nonzero"/><path fill="#000000" d="M 272.613281 271.246094 C 272.539062 271.246094 272.390625 271.246094 272.316406 271.171875 L 270.980469 270.28125 C 270.609375 270.058594 270.316406 269.835938 269.945312 269.761719 C 269.648438 269.613281 269.5 269.320312 269.648438 269.023438 C 269.796875 268.726562 270.09375 268.578125 270.390625 268.726562 C 270.832031 268.875 271.203125 269.097656 271.574219 269.394531 L 272.910156 270.28125 C 273.132812 270.429688 273.207031 270.800781 273.058594 271.023438 C 272.984375 271.171875 272.835938 271.246094 272.613281 271.246094 Z M 272.613281 271.246094 " fill-opacity="1" fill-rule="nonzero"/><path fill="#000000" d="M 255.710938 273.023438 C 255.5625 273.023438 255.488281 272.949219 255.339844 272.875 C 255.117188 272.652344 255.042969 272.355469 255.265625 272.132812 L 255.488281 271.910156 C 256.226562 270.949219 256.746094 270.28125 258.304688 269.984375 C 258.601562 269.910156 258.898438 270.132812 258.972656 270.429688 C 259.046875 270.726562 258.824219 271.023438 258.527344 271.097656 C 257.414062 271.320312 257.117188 271.691406 256.375 272.652344 L 256.152344 272.875 C 256.078125 272.949219 255.933594 273.023438 255.710938 273.023438 Z M 255.710938 273.023438 " fill-opacity="1" fill-rule="nonzero"/><path fill="#000000" d="M 256.449219 275.023438 C 256.300781 275.023438 256.226562 275.023438 256.152344 274.949219 C 255.933594 274.800781 255.859375 274.429688 256.003906 274.207031 C 256.894531 273.023438 258.15625 272.503906 259.417969 272.058594 C 259.710938 271.984375 260.007812 272.132812 260.082031 272.429688 C 260.15625 272.726562 260.007812 273.023438 259.710938 273.097656 C 258.601562 273.46875 257.5625 273.839844 256.894531 274.800781 C 256.820312 274.949219 256.671875 275.023438 256.449219 275.023438 Z M 256.449219 275.023438 " fill-opacity="1" fill-rule="nonzero"/><path fill="#000000" d="M 257.339844 277.46875 C 257.191406 277.46875 257.117188 277.46875 257.042969 277.394531 C 256.820312 277.246094 256.746094 276.875 256.96875 276.652344 C 257.785156 275.542969 259.046875 275.171875 260.15625 274.875 C 260.453125 274.800781 260.675781 274.726562 260.972656 274.652344 C 261.269531 274.578125 261.566406 274.726562 261.640625 274.949219 C 261.714844 275.246094 261.566406 275.542969 261.34375 275.617188 C 261.046875 275.691406 260.75 275.765625 260.453125 275.914062 C 259.417969 276.207031 258.453125 276.503906 257.859375 277.320312 C 257.710938 277.394531 257.5625 277.46875 257.339844 277.46875 Z M 257.339844 277.46875 " fill-opacity="1" fill-rule="nonzero"/><path fill="#fc947e" d="M 43.449219 71.882812 C 43.449219 71.882812 33.660156 27.507812 32.476562 25.210938 C 31.289062 22.914062 30.398438 20.46875 29.878906 18.542969 C 29.507812 17.28125 27.0625 15.875 27.210938 14.46875 C 27.210938 14.46875 27.359375 13.726562 28.175781 14.023438 C 29.140625 14.320312 30.992188 16.839844 31.214844 16.988281 L 31.4375 16.765625 C 31.4375 16.765625 28.992188 12.394531 29.140625 10.984375 C 29.363281 9.578125 30.324219 10.023438 30.695312 10.617188 C 31.066406 11.132812 32.921875 15.578125 33.289062 15.875 C 33.289062 15.875 33.4375 16.023438 33.511719 15.800781 C 33.585938 15.578125 31.734375 9.800781 31.808594 8.984375 C 31.957031 7.726562 33.214844 7.726562 33.585938 8.835938 C 34.105469 10.246094 34.996094 14.542969 35.441406 14.988281 C 35.886719 15.429688 35.664062 7.058594 36.921875 6.835938 C 38.183594 6.613281 38.183594 7.652344 38.257812 9.28125 C 38.257812 10.835938 37.886719 15.058594 38.257812 15.503906 C 39.222656 16.542969 40.113281 13.132812 41.445312 12.394531 C 42.855469 11.652344 43.523438 11.875 43.671875 12.320312 C 43.820312 12.839844 43.152344 13.578125 42.410156 14.691406 C 41.222656 16.46875 41.667969 17.355469 40.480469 19.503906 C 39.445312 21.433594 38.332031 22.691406 39.074219 25.875 C 39.816406 29.0625 53.976562 67.289062 53.976562 67.289062 Z M 43.449219 71.882812 " fill-opacity="1" fill-rule="nonzero"/><path fill="#000000" d="M 35.886719 22.320312 C 35.738281 22.320312 35.515625 22.171875 35.515625 22.023438 C 35.441406 21.503906 35.367188 20.988281 35.367188 20.394531 C 35.367188 19.429688 35.589844 18.394531 36.109375 17.0625 C 36.183594 16.839844 36.40625 16.765625 36.554688 16.839844 C 36.777344 16.914062 36.847656 17.136719 36.777344 17.28125 C 36.257812 18.542969 36.035156 19.429688 36.035156 20.320312 C 36.035156 20.839844 36.109375 21.285156 36.183594 21.800781 C 36.332031 22.097656 36.183594 22.320312 35.886719 22.320312 C 35.960938 22.320312 35.960938 22.320312 35.886719 22.320312 Z M 35.886719 22.320312 " fill-opacity="1" fill-rule="nonzero"/><path fill="#fc947e" d="M 58.5 250.132812 C 58.5 250.132812 57.980469 267.539062 61.316406 272.207031 C 61.316406 272.207031 63.613281 279.765625 63.09375 281.542969 C 62.574219 283.320312 32.996094 290.136719 32.996094 290.136719 C 32.996094 290.136719 45.523438 279.246094 47.378906 274.28125 C 49.230469 269.320312 47.082031 257.984375 47.082031 257.984375 Z M 58.5 250.132812 " fill-opacity="1" fill-rule="nonzero"/><path fill="#fc947e" d="M 103.871094 184.269531 C 103.871094 184.269531 119.070312 188.417969 123.445312 184.789062 C 123.445312 184.789062 130.933594 179.75 132.488281 180.417969 C 134.121094 181.085938 139.015625 213.902344 139.015625 213.902344 C 139.015625 213.902344 130.339844 199.308594 125.890625 197.085938 C 121.441406 194.863281 110.394531 197.085938 110.394531 197.085938 Z M 103.871094 184.269531 " fill-opacity="1" fill-rule="nonzero"/><path fill="#fc947e" d="M 96.011719 72.402344 C 96.011719 72.402344 130.414062 39.507812 130.191406 38.839844 C 129.96875 38.175781 129.078125 34.914062 129.375 31.507812 C 129.375 31.507812 128.78125 27.953125 127.96875 26.691406 C 127.820312 26.46875 127.894531 26.246094 128.042969 26.097656 C 128.632812 25.65625 129.746094 25.210938 130.636719 26.914062 C 131.894531 29.359375 133.007812 31.507812 133.824219 31.878906 C 134.640625 32.25 135.898438 28.394531 137.234375 27.136719 C 138.644531 25.949219 140.347656 26.46875 138.71875 29.507812 C 137.085938 32.542969 136.714844 33.0625 136.714844 33.0625 C 136.714844 33.0625 136.789062 33.730469 137.160156 33.582031 C 137.605469 33.433594 140.71875 29.359375 141.757812 28.988281 C 142.792969 28.617188 143.460938 28.988281 143.015625 30.320312 C 142.574219 31.582031 139.457031 34.542969 139.457031 34.839844 C 139.457031 35.210938 139.605469 35.359375 139.976562 35.210938 C 140.347656 35.0625 144.054688 31.878906 144.945312 32.027344 C 145.835938 32.175781 146.355469 32.988281 145.464844 34.101562 C 144.574219 35.210938 141.089844 37.285156 141.089844 37.582031 C 141.164062 37.878906 144.054688 36.914062 144.945312 36.914062 C 145.835938 36.914062 146.5 37.730469 145.910156 38.839844 C 145.910156 38.839844 142.722656 39.433594 140.941406 40.25 C 139.160156 41.0625 138.199219 42.101562 137.160156 42.324219 C 136.046875 42.621094 102.019531 83.441406 100.089844 83.589844 C 97.941406 83.886719 96.011719 72.402344 96.011719 72.402344 Z M 96.011719 72.402344 " fill-opacity="1" fill-rule="nonzero"/><path fill="#fc947e" d="M 45.820312 110.554688 C 45.820312 110.554688 42.261719 133.003906 45.597656 150.414062 C 48.117188 163.601562 73.84375 130.261719 73.84375 130.261719 L 70.136719 114.039062 Z M 45.820312 110.554688 " fill-opacity="1" fill-rule="nonzero"/><path fill="#004aad" d="M 44.1875 138.484375 C 44.1875 138.484375 74.363281 132.335938 77.699219 125.003906 C 77.699219 125.003906 86.746094 137.152344 88.226562 151.597656 C 89.785156 166.042969 92.75 182.195312 92.75 182.195312 L 118.625 183.675781 L 118.625 216.050781 C 118.625 216.050781 82.59375 214.273438 71.769531 203.457031 C 63.09375 194.789062 65.246094 169.675781 65.246094 169.675781 C 65.246094 169.675781 58.128906 204.71875 58.941406 211.679688 C 59.757812 218.570312 63.984375 251.019531 63.984375 251.019531 C 63.984375 251.019531 61.316406 261.835938 54.792969 264.503906 L 35.515625 263.097656 C 35.515625 263.097656 31.585938 229.980469 33.214844 209.828125 C 35.070312 189.753906 44.1875 138.484375 44.1875 138.484375 Z M 44.1875 138.484375 " fill-opacity="1" fill-rule="nonzero"/><path fill="#fc947e" d="M 65.914062 68.253906 C 65.914062 68.253906 62.871094 79.664062 60.054688 80.253906 C 57.238281 80.847656 49.898438 97.292969 61.539062 99.074219 C 73.179688 100.851562 75.105469 82.550781 75.105469 82.550781 C 75.105469 82.550781 74.289062 78.847656 76.960938 75.367188 C 79.628906 71.808594 65.914062 68.253906 65.914062 68.253906 Z M 65.914062 68.253906 " fill-opacity="1" fill-rule="nonzero"/><path fill="#004aad" d="M 60.128906 80.253906 C 60.128906 80.253906 52.789062 91.886719 61.613281 94.332031 C 70.210938 96.777344 75.03125 80.699219 75.03125 80.699219 L 99.199219 65.585938 C 100.015625 65.066406 100.980469 65.363281 101.5 66.179688 C 103.722656 69.660156 109.0625 79.070312 107.429688 87.367188 C 107.429688 87.367188 89.414062 98.257812 83.632812 99.21875 L 77.847656 112.628906 C 76.144531 116.554688 76.144531 119.148438 77.699219 123.074219 L 80.519531 128.039062 C 80.738281 128.484375 80.738281 129.003906 80.371094 129.371094 C 78.441406 131.449219 71.175781 137.523438 55.160156 135.375 C 35.960938 132.78125 35.960938 131.667969 35.960938 131.667969 C 35.960938 131.667969 43.078125 111.445312 42.113281 102.777344 C 40.480469 87.738281 42.261719 78.773438 37.144531 64.769531 C 40.039062 59.363281 44.117188 55.734375 49.527344 54.25 C 50.195312 53.660156 51.234375 53.953125 51.527344 54.84375 Z M 60.128906 80.253906 " fill-opacity="1" fill-rule="nonzero"/><path fill="#000000" d="M 76.515625 61.882812 C 75.921875 64.695312 75.699219 67.066406 75.699219 68.476562 C 75.699219 72.253906 73.03125 78.921875 75.476562 79.882812 C 83.1875 82.773438 85.410156 70.921875 85.410156 66.402344 C 85.410156 63.363281 82.371094 60.769531 79.851562 60.769531 C 78.589844 60.695312 77.328125 61.066406 76.515625 61.882812 Z M 76.515625 61.882812 " fill-opacity="1" fill-rule="nonzero"/><path fill="#fc947e" d="M 75.550781 55.957031 C 78.8125 56.101562 81.109375 59.511719 80.445312 63.066406 C 80.148438 64.625 79.703125 66.476562 79.257812 67.957031 C 78.367188 71.070312 77.328125 78.03125 72.734375 77.144531 C 68.136719 76.253906 65.914062 70.773438 65.542969 68.105469 C 65.171875 65.4375 63.984375 59.585938 68.136719 57.882812 C 70.359375 56.917969 73.105469 55.808594 75.550781 55.957031 Z M 75.550781 55.957031 " fill-opacity="1" fill-rule="nonzero"/><path fill="#000000" d="M 65.171875 49.214844 C 66.875 49.214844 68.507812 48.695312 69.839844 47.582031 C 70.804688 46.84375 72.289062 46.175781 74.585938 46.175781 C 78.21875 46.175781 80.148438 48.917969 82.074219 50.695312 C 84.078125 52.546875 85.039062 54.917969 84.890625 57.4375 C 84.742188 59.140625 84.59375 60.179688 84.59375 60.324219 C 85.039062 64.03125 85.484375 64.476562 85.484375 65.734375 C 85.484375 68.328125 82.222656 68.699219 81.257812 68.179688 C 78.21875 66.550781 80.296875 62.402344 77.996094 58.398438 C 77.105469 62.917969 69.175781 60.105469 66.429688 63.363281 C 63.835938 66.402344 70.804688 81.886719 62.945312 81.886719 C 60.722656 81.886719 54.050781 73.882812 54.050781 70.847656 C 54.050781 67.511719 56.347656 66.550781 57.386719 64.105469 C 55.605469 62.992188 54.867188 61.660156 54.867188 60.398438 C 54.867188 57.808594 57.757812 55.214844 60.128906 53.585938 C 60.648438 51.214844 61.464844 49.066406 65.023438 49.066406 C 65.023438 49.214844 65.097656 49.214844 65.171875 49.214844 Z M 65.171875 49.214844 " fill-opacity="1" fill-rule="nonzero"/><path fill="#fc947e" d="M 65.691406 64.769531 C 65.542969 64.105469 65.023438 63.585938 64.429688 63.4375 C 64.28125 63.4375 64.207031 63.363281 64.058594 63.363281 L 63.984375 63.363281 C 63.242188 63.585938 62.945312 64.84375 62.945312 65.585938 C 62.945312 69.066406 66.578125 69.4375 66.652344 69.511719 C 66.503906 67.957031 65.988281 66.402344 65.691406 64.769531 Z M 65.691406 64.769531 " fill-opacity="1" fill-rule="nonzero"/><path fill="#000000" d="M 70.953125 63.957031 C 70.730469 63.957031 70.433594 63.808594 70.285156 63.585938 C 70.0625 63.214844 70.210938 62.769531 70.582031 62.546875 C 71.101562 62.253906 71.695312 62.03125 72.214844 61.808594 C 73.179688 61.511719 74.066406 61.585938 75.03125 62.105469 C 75.402344 62.253906 75.550781 62.695312 75.328125 63.066406 C 75.179688 63.4375 74.734375 63.585938 74.363281 63.363281 C 73.769531 63.066406 73.253906 62.992188 72.660156 63.214844 C 72.363281 63.289062 71.84375 63.511719 71.324219 63.808594 C 71.25 63.957031 71.101562 63.957031 70.953125 63.957031 Z M 70.953125 63.957031 " fill-opacity="1" fill-rule="nonzero"/><path fill="#000000" d="M 78.886719 63.882812 C 78.738281 63.882812 78.589844 63.808594 78.441406 63.734375 C 78.292969 63.660156 78.292969 63.660156 78.292969 63.660156 C 78.292969 63.660156 78.21875 63.660156 78.144531 63.660156 C 77.773438 63.585938 77.402344 63.660156 76.960938 63.734375 L 76.886719 63.734375 C 76.515625 63.808594 76.070312 63.511719 76.070312 63.140625 C 76.070312 62.769531 76.292969 62.328125 76.664062 62.328125 L 76.738281 62.328125 C 77.253906 62.253906 77.699219 62.179688 78.292969 62.253906 C 78.738281 62.253906 78.960938 62.402344 79.257812 62.621094 C 79.628906 62.84375 79.703125 63.289062 79.480469 63.660156 C 79.40625 63.808594 79.183594 63.882812 78.886719 63.882812 Z M 78.886719 63.882812 " fill-opacity="1" fill-rule="nonzero"/><path fill="#000000" d="M 73.179688 65.882812 C 73.03125 65.734375 72.957031 65.4375 72.957031 65.140625 C 72.957031 64.625 73.105469 64.105469 73.398438 64.105469 C 73.992188 64.105469 73.992188 64.84375 73.992188 65.289062 C 73.992188 65.734375 73.84375 66.179688 73.546875 66.179688 C 73.472656 66.179688 73.398438 66.105469 73.253906 66.03125 C 73.253906 66.03125 73.179688 65.957031 73.179688 65.882812 Z M 73.179688 65.882812 " fill-opacity="1" fill-rule="nonzero"/><path fill="#000000" d="M 77.550781 65.214844 C 77.550781 64.769531 77.773438 64.253906 78.070312 64.253906 C 78.441406 64.253906 78.515625 64.992188 78.515625 65.4375 C 78.515625 65.882812 78.367188 66.179688 78.070312 66.253906 C 77.996094 66.253906 77.921875 66.253906 77.773438 66.179688 C 77.550781 65.882812 77.550781 65.511719 77.550781 65.214844 Z M 77.550781 65.214844 " fill-opacity="1" fill-rule="nonzero"/><path fill="#000000" d="M 75.253906 70.996094 C 75.179688 70.996094 75.03125 70.921875 74.957031 70.847656 C 74.808594 70.699219 74.882812 70.476562 75.03125 70.328125 L 75.328125 70.03125 C 75.996094 69.511719 76.21875 69.289062 76.21875 68.625 C 76.21875 67.882812 75.921875 66.84375 75.699219 65.882812 C 75.550781 65.4375 75.476562 64.992188 75.402344 64.625 C 75.328125 64.402344 75.476562 64.253906 75.699219 64.179688 C 75.921875 64.105469 76.070312 64.253906 76.144531 64.476562 C 76.21875 64.84375 76.292969 65.214844 76.441406 65.660156 C 76.664062 66.699219 76.960938 67.808594 76.960938 68.625 C 76.960938 69.660156 76.515625 70.03125 75.773438 70.550781 L 75.476562 70.773438 C 75.476562 70.996094 75.402344 70.996094 75.253906 70.996094 Z M 75.253906 70.996094 " fill-opacity="1" fill-rule="nonzero"/><path fill="#000000" d="M 75.476562 72.847656 L 75.105469 72.847656 C 73.84375 72.847656 72.734375 72.402344 71.769531 71.511719 C 71.621094 71.363281 71.621094 71.140625 71.769531 70.996094 C 71.917969 70.847656 72.140625 70.847656 72.289062 70.996094 C 73.105469 71.734375 74.066406 72.179688 75.179688 72.179688 L 75.550781 72.179688 C 75.773438 72.179688 75.921875 72.328125 75.921875 72.550781 C 75.921875 72.773438 75.699219 72.847656 75.476562 72.847656 Z M 75.476562 72.847656 " fill-opacity="1" fill-rule="nonzero"/><path fill="#000000" d="M 82.59375 96.703125 C 82.222656 96.703125 81.851562 96.40625 81.851562 95.960938 C 81.777344 93.070312 80.886719 90.699219 79.777344 87.886719 L 79.703125 87.589844 C 79.554688 87.21875 79.777344 86.773438 80.148438 86.625 C 80.519531 86.476562 80.960938 86.699219 81.109375 87.070312 L 81.183594 87.367188 C 82.222656 90.183594 83.261719 92.773438 83.335938 95.886719 C 83.335938 96.40625 83.039062 96.703125 82.59375 96.703125 C 82.667969 96.703125 82.59375 96.703125 82.59375 96.703125 Z M 82.59375 96.703125 " fill-opacity="1" fill-rule="nonzero"/><path fill="#000000" d="M 43.523438 90.035156 C 43.449219 90.035156 43.449219 90.035156 43.375 90.035156 C 43.003906 89.960938 42.707031 89.589844 42.78125 89.144531 C 43.96875 82.847656 46.636719 78.847656 50.269531 74.773438 C 50.566406 74.476562 51.011719 74.476562 51.308594 74.699219 C 51.601562 74.996094 51.601562 75.4375 51.382812 75.734375 C 47.894531 79.589844 45.375 83.367188 44.1875 89.367188 C 44.1875 89.8125 43.894531 90.035156 43.523438 90.035156 Z M 43.523438 90.035156 " fill-opacity="1" fill-rule="nonzero"/><path fill="#000000" d="M 65.320312 170.488281 C 65.320312 170.488281 65.246094 170.488281 65.246094 170.488281 C 64.875 170.414062 64.578125 170.046875 64.578125 169.675781 C 65.320312 164.191406 65.394531 158.5625 65.394531 154.191406 C 65.394531 150.191406 65.320312 146.042969 65.246094 142.632812 C 65.246094 142.191406 65.542969 141.894531 65.988281 141.894531 C 66.429688 141.894531 66.726562 142.191406 66.726562 142.632812 C 66.800781 146.042969 66.875 150.191406 66.875 154.191406 C 66.875 158.5625 66.800781 164.265625 66.058594 169.824219 C 66.058594 170.269531 65.691406 170.488281 65.320312 170.488281 Z M 65.320312 170.488281 " fill-opacity="1" fill-rule="nonzero"/><path fill="#000000" d="M 94.308594 191.972656 C 93.9375 191.972656 93.640625 191.753906 93.566406 191.382812 L 93.269531 189.972656 C 92.675781 187.457031 92.15625 185.011719 91.636719 182.492188 C 91.566406 182.121094 91.785156 181.675781 92.230469 181.601562 C 92.601562 181.527344 93.046875 181.75 93.121094 182.195312 C 93.640625 184.714844 94.160156 187.085938 94.753906 189.605469 L 95.050781 191.011719 C 95.125 191.382812 94.902344 191.828125 94.457031 191.902344 C 94.457031 191.972656 94.382812 191.972656 94.308594 191.972656 Z M 94.308594 191.972656 " fill-opacity="1" fill-rule="nonzero"/><path fill="#000000" d="M 56.347656 247.539062 C 55.976562 247.539062 55.679688 247.242188 55.605469 246.871094 C 55.085938 241.832031 54.867188 236.796875 54.867188 231.386719 C 54.867188 225.832031 55.160156 220.125 55.679688 213.828125 C 55.679688 213.460938 56.050781 213.089844 56.496094 213.164062 C 56.941406 213.164062 57.238281 213.53125 57.164062 213.976562 C 56.644531 220.199219 56.347656 225.90625 56.347656 231.386719 C 56.347656 236.722656 56.570312 241.757812 57.089844 246.722656 C 57.164062 247.09375 56.867188 247.464844 56.421875 247.539062 C 56.421875 247.539062 56.421875 247.539062 56.347656 247.539062 Z M 56.347656 247.539062 " fill-opacity="1" fill-rule="nonzero"/><path fill="#000000" d="M 73.84375 77.367188 C 70.582031 76.921875 69.175781 75.4375 67.394531 72.550781 C 67.320312 72.402344 67.320312 72.179688 67.542969 72.03125 C 67.691406 71.957031 67.914062 71.957031 68.0625 72.179688 C 69.765625 74.921875 71.027344 76.253906 73.917969 76.699219 C 74.140625 76.699219 74.289062 76.921875 74.214844 77.144531 C 74.214844 77.292969 74.066406 77.367188 73.84375 77.367188 Z M 73.84375 77.367188 " fill-opacity="1" fill-rule="nonzero"/><path fill="#004aad" d="M 61.910156 270.800781 C 61.464844 270.058594 60.648438 269.910156 59.980469 270.429688 C 59.015625 271.171875 57.386719 271.984375 57.089844 272.429688 C 53.382812 277.914062 46.785156 274.355469 45.078125 272.875 C 44.558594 272.429688 43.746094 272.429688 43.300781 273.023438 C 42.335938 274.132812 38.183594 281.320312 33.882812 285.023438 C 24.394531 293.101562 24.023438 292.953125 29.4375 296.0625 C 34.773438 299.175781 52.566406 288.65625 57.015625 287.988281 C 59.683594 287.542969 62.574219 285.914062 64.503906 284.65625 C 65.691406 283.839844 66.207031 282.210938 65.765625 280.726562 C 64.800781 277.765625 63.242188 273.097656 61.910156 270.800781 Z M 61.910156 270.800781 " fill-opacity="1" fill-rule="nonzero"/><path fill="#004aad" d="M 123.890625 183.011719 C 123.296875 183.308594 123.074219 184.121094 123.371094 184.789062 C 123.890625 185.824219 124.335938 187.382812 124.628906 187.675781 C 128.558594 191.753906 125.148438 197.605469 123.742188 199.085938 C 123.296875 199.53125 123.296875 200.273438 123.667969 200.789062 C 124.410156 201.828125 129.597656 206.496094 132.042969 210.941406 C 137.382812 220.71875 137.234375 221.089844 140.199219 216.273438 C 143.164062 211.457031 136.714844 193.605469 136.640625 189.308594 C 136.566406 186.714844 135.527344 183.824219 134.789062 181.898438 C 134.269531 180.640625 133.082031 180.046875 131.820312 180.34375 C 129.597656 180.9375 125.890625 181.972656 123.890625 183.011719 Z M 123.890625 183.011719 " fill-opacity="1" fill-rule="nonzero"/></svg>