<svg xmlns="http://www.w3.org/2000/svg" xmlns:xlink="http://www.w3.org/1999/xlink" width="500" zoomAndPan="magnify" viewBox="0 0 375 374.999991" height="500" preserveAspectRatio="xMidYMid meet" version="1.0"><defs><g/></defs><rect x="-37.5" width="450" fill="#ffffff" y="-37.499999" height="449.999989" fill-opacity="1"/><rect x="-37.5" width="450" fill="#ffffff" y="-37.499999" height="449.999989" fill-opacity="1"/><rect x="-37.5" width="450" fill="#0050bb" y="-37.499999" height="449.999989" fill-opacity="1"/><g fill="#ffffff" fill-opacity="1"><g transform="translate(64.743003, 244.389928)"><g><path d="M 160.640625 -130.59375 L 148.484375 -130.59375 L 146.265625 -159.46875 C 141.222656 -165.46875 134.648438 -170.316406 126.546875 -174.015625 C 118.453125 -177.722656 109.09375 -179.578125 98.46875 -179.578125 C 77.226562 -179.578125 60.335938 -171.847656 47.796875 -156.390625 C 35.265625 -140.941406 29 -120.984375 29 -96.515625 L 29 -93.765625 C 29 -69.304688 35.203125 -49.304688 47.609375 -33.765625 C 60.015625 -18.222656 76.316406 -10.453125 96.515625 -10.453125 C 107.222656 -10.453125 116.953125 -12.320312 125.703125 -16.0625 C 134.453125 -19.800781 141.304688 -24.632812 146.265625 -30.5625 L 148.484375 -59.421875 L 160.640625 -59.421875 L 160.640625 -25.984375 C 154.710938 -17.804688 146.066406 -10.972656 134.703125 -5.484375 C 123.347656 0.00390625 110.617188 2.75 96.515625 2.75 C 72.140625 2.75 52.203125 -6.28125 36.703125 -24.34375 C 21.203125 -42.414062 13.453125 -65.554688 13.453125 -93.765625 L 13.453125 -96.25 C 13.453125 -124.550781 21.175781 -147.734375 36.625 -165.796875 C 52.082031 -183.859375 72.304688 -192.890625 97.296875 -192.890625 C 111.398438 -192.890625 124 -190.125 135.09375 -184.59375 C 146.195312 -179.070312 154.710938 -172.21875 160.640625 -164.03125 Z M 160.640625 -130.59375 "/></g></g></g><g fill="#ffffff" fill-opacity="1"><g transform="translate(111.536188, 326.988807)"><g><path d="M 191.84375 -190.15625 L 191.84375 -178.53125 L 170.5625 -176.828125 L 170.5625 0 L 155.015625 0 L 47.015625 -163.515625 L 46.234375 -163.375 L 46.234375 -13.1875 L 67.515625 -11.5 L 67.515625 0 L 9.265625 0 L 9.265625 -11.5 L 30.5625 -13.1875 L 30.5625 -176.828125 L 9.265625 -178.53125 L 9.265625 -190.15625 L 46.234375 -190.15625 L 154.234375 -26.90625 L 155.015625 -27.03125 L 155.015625 -176.828125 L 133.734375 -178.53125 L 133.734375 -190.15625 Z M 191.84375 -190.15625 "/></g></g></g></svg>