<svg xmlns="http://www.w3.org/2000/svg" xmlns:xlink="http://www.w3.org/1999/xlink" width="500" zoomAndPan="magnify" viewBox="0 0 375 374.999991" height="500" preserveAspectRatio="xMidYMid meet" version="1.0"><defs><g/></defs><rect x="-37.5" width="450" fill="#ffffff" y="-37.499999" height="449.999989" fill-opacity="1"/><rect x="-37.5" width="450" fill="#ffffff" y="-37.499999" height="449.999989" fill-opacity="1"/><rect x="-37.5" width="450" fill="#0050bb" y="-37.499999" height="449.999989" fill-opacity="1"/><g fill="#ffffff" fill-opacity="1"><g transform="translate(97.859686, 225.752975)"><g><path d="M 117.296875 -95.375 L 108.4375 -95.375 L 106.8125 -116.4375 C 103.125 -120.832031 98.320312 -124.378906 92.40625 -127.078125 C 86.5 -129.773438 79.664062 -131.125 71.90625 -131.125 C 56.394531 -131.125 44.0625 -125.484375 34.90625 -114.203125 C 25.75 -102.921875 21.171875 -88.34375 21.171875 -70.46875 L 21.171875 -68.46875 C 21.171875 -50.601562 25.695312 -35.992188 34.75 -24.640625 C 43.8125 -13.296875 55.71875 -7.625 70.46875 -7.625 C 78.289062 -7.625 85.394531 -8.988281 91.78125 -11.71875 C 98.175781 -14.457031 103.1875 -17.988281 106.8125 -22.3125 L 108.4375 -43.390625 L 117.296875 -43.390625 L 117.296875 -18.984375 C 112.972656 -13.003906 106.660156 -8.007812 98.359375 -4 C 90.066406 0 80.769531 2 70.46875 2 C 52.675781 2 38.117188 -4.59375 26.796875 -17.78125 C 15.484375 -30.976562 9.828125 -47.875 9.828125 -68.46875 L 9.828125 -70.28125 C 9.828125 -90.945312 15.46875 -107.875 26.75 -121.0625 C 38.03125 -134.257812 52.796875 -140.859375 71.046875 -140.859375 C 81.347656 -140.859375 90.550781 -138.835938 98.65625 -134.796875 C 106.757812 -130.765625 112.972656 -125.757812 117.296875 -119.78125 Z M 117.296875 -95.375 "/></g></g></g><g fill="#ffffff" fill-opacity="1"><g transform="translate(132.029264, 286.068795)"><g><path d="M 140.09375 -138.859375 L 140.09375 -130.375 L 124.546875 -129.125 L 124.546875 0 L 113.203125 0 L 34.328125 -119.40625 L 33.765625 -119.296875 L 33.765625 -9.625 L 49.3125 -8.390625 L 49.3125 0 L 6.765625 0 L 6.765625 -8.390625 L 22.3125 -9.625 L 22.3125 -129.125 L 6.765625 -130.375 L 6.765625 -138.859375 L 33.765625 -138.859375 L 112.625 -19.640625 L 113.203125 -19.734375 L 113.203125 -129.125 L 97.65625 -130.375 L 97.65625 -138.859375 Z M 140.09375 -138.859375 "/></g></g></g></svg>